<?xml version="1.0" encoding="UTF-8" standalone="no"?>
<svg
   xmlns:dc="http://purl.org/dc/elements/1.1/"
   xmlns:cc="http://creativecommons.org/ns#"
   xmlns:rdf="http://www.w3.org/1999/02/22-rdf-syntax-ns#"
   xmlns:svg="http://www.w3.org/2000/svg"
   xmlns="http://www.w3.org/2000/svg"
   version="1.1"
   id="svg833"
   xml:space="preserve"
   width="523.03998"
   height="770.07996"
   viewBox="0 0 523.03998 770.07996"><metadata
     id="metadata839"><rdf:RDF><cc:Work
         rdf:about=""><dc:format>image/svg+xml</dc:format><dc:type
           rdf:resource="http://purl.org/dc/dcmitype/StillImage" /><dc:title></dc:title></cc:Work></rdf:RDF></metadata><defs
     id="defs837"><clipPath
       clipPathUnits="userSpaceOnUse"
       id="clipPath903"><path
         d="M 72,710.04 H 540 V 121.68 H 72 Z"
         clip-rule="evenodd"
         id="path901" /></clipPath><clipPath
       clipPathUnits="userSpaceOnUse"
       id="clipPath911"><path
         d="M 90,720 H 522 V 72 H 90 Z"
         clip-rule="evenodd"
         id="path909" /></clipPath><clipPath
       clipPathUnits="userSpaceOnUse"
       id="clipPath919"><path
         d="M 0,792.03 H 612 V 0.03 H 0 Z"
         id="path917" /></clipPath></defs><g
     id="g841"
     transform="matrix(1.3333333,0,0,-1.3333333,-156.48,934.71998)"><g
       id="g923"
       transform="translate(184.38,651.12)"><path
         d="M 0,0 H 3.36 L 3.18,-0.66 0.48,-9.9 0,-11.58 -3.12,-0.66 -3.3,0 h 0.66 l 0.48,-0.36 2.64,-9.24 -0.96,-0.3 v 0.3 l 2.7,9.24 0.96,-0.3 L 2.7,-1.02 H 0"
         style="fill:#000000;fill-opacity:1;fill-rule:nonzero;stroke:none"
         id="path925" /></g><path
       d="m 181.74,650.1 h 2.64 v 1.02 h -2.64 z"
       style="fill:#000000;fill-opacity:1;fill-rule:nonzero;stroke:none"
       id="path927" /><g
       id="g929"
       transform="translate(184.38,650.64001)"><path
         d="M 0,0 H 2.7 L 0,-9.24 -2.64,0"
         style="fill:#000000;fill-opacity:1;fill-rule:evenodd;stroke:none"
         id="path931" /></g><path
       d="m 184.02,668.22 h 0.78 v 0.36 h -0.78 z"
       style="fill:#000000;fill-opacity:1;fill-rule:nonzero;stroke:none"
       id="path933" /><path
       d="m 184.02,650.76 h 0.78 v 17.46 h -0.78 z"
       style="fill:#000000;fill-opacity:1;fill-rule:nonzero;stroke:none"
       id="path935" /><text
       transform="scale(1,-1)"
       style="font-variant:normal;font-weight:normal;font-stretch:normal;font-size:13.98px;font-family:Arial;-inkscape-font-specification:ArialMT;writing-mode:lr-tb;fill:#000000;fill-opacity:1;fill-rule:nonzero;stroke:none"
       id="text939"
       x="176.7"
       y="-672.90002"><tspan
         x="176.7 181.3791 189.17575"
         y="-672.90002"
         id="tspan937">ref</tspan></text><g
       id="g941"
       transform="translate(154.86,684.71997)"><path
         d="m 0,0 h -0.84 0.06 l -0.84,-0.12 0.06,0.06 -0.84,-0.24 h 0.06 l -0.78,-0.3 -0.72,-0.3 h 0.06 l -0.66,-0.42 -0.66,-0.48 0.06,0.06 -1.14,-1.14 0.06,0.06 -0.48,-0.66 -0.42,-0.72 v 0.06 l -0.36,-0.72 -0.3,-0.78 0.06,0.06 -0.18,-0.78 v 0.06 l -0.12,-0.84 -0.06,-0.84 v 0.06 l 0.06,-0.9 v 0.06 l 0.12,-0.84 0.18,-0.78 -0.06,0.06 0.3,-0.78 v 0.06 l 0.36,-0.72 0.42,-0.72 -0.06,0.06 0.48,-0.6 0.54,-0.6 v 0.06 l 0.6,-0.54 H -5.1 l 0.66,-0.48 0.66,-0.42 -0.06,0.06 0.72,-0.36 0.78,-0.3 H -2.4 l 1.68,-0.36 h -0.12 60.78 -0.06 l 1.68,0.36 H 61.5 l 0.72,0.3 0.78,0.36 -0.06,-0.06 0.42,-0.66 H 63.3 l -0.78,-0.36 -0.72,-0.3 -0.06,-0.06 -1.68,-0.36 h -60.9 c -1.502,0.232 -2.757,0.629 -4.02,1.5 h -0.06 l -0.66,0.48 v 0.06 l -0.6,0.54 h -0.06 l -0.54,0.6 v 0.06 l -0.48,0.6 -0.42,0.72 -0.06,0.06 -0.36,0.72 -0.3,0.78 v 0.06 l -0.18,0.78 v 0.06 c -0.34,1.546 -0.169,3.721 0.48,5.16 v 0.06 l 0.36,0.72 h 0.06 l 0.42,0.72 V -3 l 0.48,0.66 h 0.06 l 1.14,1.14 v 0.06 l 0.66,0.48 h 0.06 l 0.66,0.42 0.06,0.06 0.72,0.3 0.78,0.3 0.84,0.24 h 0.06 L -0.9,0.78 H 0"
         style="fill:#000000;fill-opacity:1;fill-rule:nonzero;stroke:none"
         id="path943" /></g><g
       id="g945"
       transform="translate(217.8,669.71997)"><path
         d="M 0,0 0.66,0.42 H 0.6 L 1.26,0.9 1.86,1.44 1.8,1.38 2.34,1.98 2.82,2.58 V 2.52 L 3.24,3.24 H 3.18 L 3.54,3.96 V 3.9 l 0.3,0.78 V 4.62 L 4.02,5.4 4.14,6.24 V 6.18 L 4.2,7.08 V 7.02 L 4.14,7.86 4.02,8.7 V 8.64 L 3.84,9.42 V 9.36 L 3.54,10.14 3.18,10.86 3.24,10.8 2.82,11.52 2.34,12.18 2.4,12.12 1.26,13.26 V 13.2 L 0.6,13.68 H 0.66 L 0,14.1 h 0.06 l -0.78,0.3 -0.72,0.3 -0.84,0.24 0.06,-0.06 L -3.06,15 H -3 -62.94 v 0.78 h 59.1 c 0.885,0.058 1.805,-0.064 2.64,-0.36 h 0.06 l 0.72,-0.3 C 0.456,14.907 1.823,13.897 2.4,13.2 L 2.94,12.66 H 3 L 3.48,12 V 11.94 C 4.224,10.73 4.816,9.412 4.92,7.98 V 7.92 L 4.98,7.08 C 4.914,5.368 4.73,4.383 3.9,2.88 V 2.82 L 3.48,2.1 H 3.42 C 2.719,1.129 2.103,0.435 1.08,-0.24 L 0.42,-0.66"
         style="fill:#000000;fill-opacity:1;fill-rule:nonzero;stroke:none"
         id="path947" /></g><text
       transform="scale(1,-1)"
       style="font-variant:normal;font-weight:normal;font-stretch:normal;font-size:13.98px;font-family:Arial;-inkscape-font-specification:ArialMT;writing-mode:lr-tb;fill:#000000;fill-opacity:1;fill-rule:nonzero;stroke:none"
       id="text951"
       x="175.56"
       y="-627.35999"><tspan
         x="175.56 183.32729 191.09457"
         y="-627.35999"
         id="tspan949">obj</tspan></text><g
       id="g953"
       transform="translate(154.86,639.17999)"><path
         d="m 0,0 h -0.84 0.06 l -0.84,-0.12 0.06,0.06 -0.84,-0.24 h 0.06 l -0.78,-0.3 -0.72,-0.3 h 0.06 l -0.66,-0.42 v 0.06 L -5.1,-1.8 h 0.06 l -0.6,-0.54 -0.54,-0.54 0.06,0.06 -0.48,-0.66 -0.42,-0.72 v 0.06 l -0.36,-0.72 -0.3,-0.78 0.06,0.06 -0.18,-0.78 v 0.06 l -0.12,-0.84 -0.06,-0.84 v 0.06 l 0.06,-0.9 v 0.06 l 0.12,-0.84 0.18,-0.78 -0.06,0.06 0.3,-0.78 v 0.06 l 0.36,-0.72 0.42,-0.72 -0.06,0.06 0.48,-0.6 0.54,-0.6 v 0.06 l 0.6,-0.54 H -5.1 l 0.66,-0.48 0.66,-0.42 -0.06,0.06 0.72,-0.36 0.78,-0.3 H -2.4 l 1.68,-0.36 h -0.12 60.78 -0.06 l 1.68,0.36 H 61.5 l 0.72,0.3 0.78,0.36 -0.06,-0.06 0.42,-0.66 H 63.3 l -0.78,-0.36 -0.72,-0.3 -0.06,-0.06 -1.68,-0.36 h -60.9 c -1.502,0.232 -2.758,0.629 -4.02,1.5 h -0.06 l -0.66,0.48 v 0.06 l -0.6,0.54 h -0.06 l -0.54,0.6 v 0.06 l -0.48,0.6 -0.42,0.72 -0.06,0.06 -0.36,0.72 -0.3,0.78 v 0.06 l -0.18,0.78 v 0.06 c -0.34,1.546 -0.169,3.721 0.48,5.16 v 0.06 l 0.36,0.72 h 0.06 l 0.42,0.72 V -3 l 0.48,0.66 h 0.06 c 1.559,1.805 3.441,2.898 5.88,3.12 H 0"
         style="fill:#000000;fill-opacity:1;fill-rule:nonzero;stroke:none"
         id="path955" /></g><g
       id="g957"
       transform="translate(217.8,624.17999)"><path
         d="M 0,0 0.66,0.42 H 0.6 L 1.26,0.9 1.86,1.44 1.8,1.38 2.34,1.98 2.82,2.58 V 2.52 L 3.24,3.24 H 3.18 L 3.54,3.96 V 3.9 l 0.3,0.78 V 4.62 L 4.02,5.4 4.14,6.24 V 6.18 L 4.2,7.08 V 7.02 L 4.14,7.86 4.02,8.7 V 8.64 L 3.84,9.42 V 9.36 L 3.54,10.14 3.18,10.86 3.24,10.8 2.82,11.52 2.34,12.18 2.4,12.12 1.86,12.66 1.26,13.2 0.6,13.74 0.66,13.68 0,14.1 h 0.06 l -0.78,0.3 -0.72,0.3 -0.84,0.24 0.06,-0.06 L -3.06,15 H -3 -62.94 v 0.78 h 60 l 0.84,-0.12 h 0.06 l 0.84,-0.24 h 0.06 l 0.72,-0.3 0.78,-0.3 0.06,-0.06 0.66,-0.42 0.66,-0.54 H 1.8 L 2.4,13.26 V 13.2 L 2.94,12.66 H 3 L 3.48,12 V 11.94 C 4.224,10.73 4.816,9.412 4.92,7.98 V 7.92 L 4.98,7.08 C 4.914,5.368 4.73,4.383 3.9,2.88 V 2.82 L 3.48,2.1 H 3.42 C 2.719,1.129 2.103,0.435 1.08,-0.24 L 0.42,-0.66"
         style="fill:#000000;fill-opacity:1;fill-rule:nonzero;stroke:none"
         id="path959" /></g><g
       id="g961"
       transform="translate(184.38,559.56)"><path
         d="M 0,0 H 3.36 L 3.18,-0.66 0.48,-9.9 0,-11.58 -3.12,-0.66 -3.3,0 h 0.66 l 0.48,-0.36 2.64,-9.24 -0.96,-0.3 v 0.3 l 2.7,9.24 0.96,-0.3 L 2.7,-1.02 H 0"
         style="fill:#000000;fill-opacity:1;fill-rule:nonzero;stroke:none"
         id="path963" /></g><path
       d="m 181.74,558.54 h 2.64 v 1.02 h -2.64 z"
       style="fill:#000000;fill-opacity:1;fill-rule:nonzero;stroke:none"
       id="path965" /><g
       id="g967"
       transform="translate(184.38,559.08002)"><path
         d="M 0,0 H 2.7 L 0,-9.24 -2.64,0"
         style="fill:#000000;fill-opacity:1;fill-rule:evenodd;stroke:none"
         id="path969" /></g><path
       d="m 184.02,576.72 h 0.78 v 0.36 h -0.78 z"
       style="fill:#000000;fill-opacity:1;fill-rule:nonzero;stroke:none"
       id="path971" /><path
       d="m 184.02,559.2 h 0.78 v 17.52 h -0.78 z"
       style="fill:#000000;fill-opacity:1;fill-rule:nonzero;stroke:none"
       id="path973" /><text
       transform="scale(1,-1)"
       style="font-variant:normal;font-weight:normal;font-stretch:normal;font-size:13.98px;font-family:Arial;-inkscape-font-specification:ArialMT;writing-mode:lr-tb;fill:#000000;fill-opacity:1;fill-rule:nonzero;stroke:none"
       id="text977"
       x="176.7"
       y="-581.40002"><tspan
         x="176.7 181.38051 189.17854"
         y="-581.40002"
         id="tspan975">ref</tspan></text><g
       id="g979"
       transform="translate(154.86,593.21997)"><path
         d="m 0,0 h -0.84 0.06 l -0.84,-0.12 0.06,0.06 -0.84,-0.24 h 0.06 l -0.78,-0.3 -0.72,-0.3 h 0.06 l -0.66,-0.42 -0.66,-0.48 0.06,0.06 -1.14,-1.14 0.06,0.06 -0.48,-0.66 -0.42,-0.72 v 0.06 l -0.36,-0.72 -0.3,-0.78 0.06,0.06 -0.18,-0.78 v 0.06 l -0.12,-0.84 -0.06,-0.84 v 0.06 l 0.06,-0.9 v 0.06 l 0.12,-0.84 0.18,-0.78 -0.06,0.06 0.3,-0.78 v 0.06 l 0.36,-0.72 0.42,-0.72 -0.06,0.06 0.48,-0.6 0.54,-0.6 v 0.06 l 0.6,-0.54 H -5.1 l 0.66,-0.48 0.66,-0.42 -0.06,0.06 0.72,-0.36 0.78,-0.3 H -2.4 l 1.68,-0.36 h -0.12 60.78 -0.06 l 1.68,0.36 H 61.5 l 0.72,0.3 0.78,0.36 -0.06,-0.06 0.42,-0.66 H 63.3 l -0.78,-0.36 -0.72,-0.3 -0.06,-0.06 -1.68,-0.36 h -60.9 c -1.502,0.232 -2.757,0.629 -4.02,1.5 h -0.06 l -0.66,0.48 v 0.06 l -0.6,0.54 h -0.06 l -0.54,0.6 v 0.06 l -0.48,0.6 -0.42,0.72 -0.06,0.06 -0.36,0.72 -0.3,0.78 v 0.06 l -0.18,0.78 v 0.06 c -0.34,1.546 -0.169,3.721 0.48,5.16 v 0.06 l 0.36,0.72 h 0.06 l 0.42,0.72 V -3 l 0.48,0.66 h 0.06 l 1.14,1.14 v 0.06 l 0.66,0.48 h 0.06 l 0.66,0.42 0.06,0.06 0.72,0.3 0.78,0.3 0.84,0.24 h 0.06 L -0.9,0.78 H 0"
         style="fill:#000000;fill-opacity:1;fill-rule:nonzero;stroke:none"
         id="path981" /></g><g
       id="g983"
       transform="translate(217.8,578.21997)"><path
         d="M 0,0 0.66,0.42 H 0.6 L 1.26,0.9 1.86,1.44 1.8,1.38 2.34,1.98 2.82,2.58 V 2.52 L 3.24,3.24 H 3.18 L 3.54,3.96 V 3.9 l 0.3,0.78 V 4.62 L 4.02,5.4 4.14,6.24 V 6.18 L 4.2,7.08 V 7.02 L 4.14,7.86 4.02,8.7 V 8.64 L 3.84,9.42 V 9.36 L 3.54,10.14 3.18,10.86 3.24,10.8 2.82,11.52 2.34,12.18 2.4,12.12 1.26,13.26 V 13.2 L 0.6,13.68 H 0.66 L 0,14.1 h 0.06 l -0.78,0.3 -0.72,0.3 -0.84,0.24 0.06,-0.06 L -3.06,15 H -3 -62.94 v 0.78 h 59.1 c 0.885,0.058 1.805,-0.064 2.64,-0.36 h 0.06 l 0.72,-0.3 C 0.457,14.907 1.823,13.897 2.4,13.2 L 2.94,12.66 H 3 L 3.48,12 V 11.94 C 4.224,10.73 4.816,9.412 4.92,7.98 V 7.92 L 4.98,7.08 C 4.914,5.368 4.73,4.383 3.9,2.88 V 2.82 L 3.48,2.1 H 3.42 C 2.719,1.129 2.103,0.435 1.08,-0.24 L 0.42,-0.66"
         style="fill:#000000;fill-opacity:1;fill-rule:nonzero;stroke:none"
         id="path985" /></g><text
       transform="scale(1,-1)"
       style="font-variant:normal;font-weight:normal;font-stretch:normal;font-size:13.98px;font-family:Arial;-inkscape-font-specification:ArialMT;writing-mode:lr-tb;fill:#000000;fill-opacity:1;fill-rule:nonzero;stroke:none"
       id="text989"
       x="175.56"
       y="-535.85999"><tspan
         x="175.56 183.32729 191.09457"
         y="-535.85999"
         id="tspan987">obj</tspan></text><g
       id="g991"
       transform="translate(154.86,547.67999)"><path
         d="m 0,0 h -0.84 0.06 l -0.84,-0.12 0.06,0.06 -0.84,-0.24 h 0.06 l -0.78,-0.3 -0.72,-0.3 h 0.06 l -0.66,-0.42 -0.66,-0.48 0.06,0.06 -1.14,-1.14 0.06,0.06 -0.48,-0.66 -0.42,-0.72 v 0.06 l -0.36,-0.72 -0.3,-0.78 0.06,0.06 -0.18,-0.78 v 0.06 l -0.12,-0.84 -0.06,-0.84 v 0.06 l 0.06,-0.9 v 0.06 l 0.12,-0.84 0.18,-0.78 -0.06,0.06 0.3,-0.78 v 0.06 l 0.36,-0.72 0.42,-0.72 -0.06,0.06 0.48,-0.6 0.54,-0.6 v 0.06 l 0.6,-0.54 H -5.1 l 0.66,-0.48 0.66,-0.42 -0.06,0.06 0.72,-0.36 0.78,-0.3 H -2.4 l 1.68,-0.36 h -0.12 60.78 -0.06 l 1.68,0.36 H 61.5 l 0.72,0.3 0.78,0.36 -0.06,-0.06 0.42,-0.66 H 63.3 l -0.78,-0.36 -0.72,-0.3 -0.06,-0.06 -1.68,-0.36 h -60.9 c -1.502,0.232 -2.758,0.629 -4.02,1.5 h -0.06 l -0.66,0.48 v 0.06 l -0.6,0.54 h -0.06 l -0.54,0.6 v 0.06 l -0.48,0.6 -0.42,0.72 -0.06,0.06 -0.36,0.72 -0.3,0.78 v 0.06 l -0.18,0.78 v 0.06 c -0.34,1.546 -0.169,3.721 0.48,5.16 v 0.06 l 0.36,0.72 h 0.06 l 0.42,0.72 V -3 l 0.48,0.66 h 0.06 l 1.14,1.14 v 0.06 l 0.66,0.48 h 0.06 l 0.66,0.42 0.06,0.06 0.72,0.3 0.78,0.3 0.84,0.24 h 0.06 L -0.9,0.78 H 0"
         style="fill:#000000;fill-opacity:1;fill-rule:nonzero;stroke:none"
         id="path993" /></g><g
       id="g995"
       transform="translate(217.8,532.67999)"><path
         d="M 0,0 0.66,0.42 H 0.6 L 1.26,0.9 1.86,1.44 1.8,1.38 2.34,1.98 2.82,2.58 V 2.52 L 3.24,3.24 H 3.18 L 3.54,3.96 V 3.9 l 0.3,0.78 V 4.62 L 4.02,5.4 4.14,6.24 V 6.18 L 4.2,7.08 V 7.02 L 4.14,7.86 4.02,8.7 V 8.64 L 3.84,9.42 V 9.36 L 3.54,10.14 3.18,10.86 3.24,10.8 2.82,11.52 2.34,12.18 2.4,12.12 1.26,13.26 V 13.2 L 0.6,13.68 H 0.66 L 0,14.1 h 0.06 l -0.78,0.3 -0.72,0.3 -0.84,0.24 0.06,-0.06 L -3.06,15 H -3 -62.94 v 0.78 h 59.1 c 0.885,0.058 1.805,-0.064 2.64,-0.36 h 0.06 l 0.72,-0.3 C 0.456,14.907 1.823,13.897 2.4,13.2 L 2.94,12.66 H 3 L 3.48,12 V 11.94 C 4.224,10.73 4.816,9.412 4.92,7.98 V 7.92 L 4.98,7.08 C 4.914,5.368 4.73,4.383 3.9,2.88 V 2.82 L 3.48,2.1 H 3.42 C 2.719,1.129 2.103,0.435 1.08,-0.24 L 0.42,-0.66"
         style="fill:#000000;fill-opacity:1;fill-rule:nonzero;stroke:none"
         id="path997" /></g><text
       transform="scale(1,-1)"
       style="font-style:italic;font-variant:normal;font-weight:normal;font-stretch:normal;font-size:12px;font-family:'Times New Roman';-inkscape-font-specification:'TimesNewRoman Italic';writing-mode:lr-tb;fill:#000000;fill-opacity:1;fill-rule:nonzero;stroke:none"
       id="text1001"
       x="157.5"
       y="-553.97998"><tspan
         x="157.5 164.16479 170.15759"
         y="-553.97998"
         id="tspan999">Tag</tspan></text><text
       transform="scale(1,-1)"
       style="font-variant:normal;font-weight:normal;font-stretch:normal;font-size:13.98px;font-family:Arial;-inkscape-font-specification:ArialMT;writing-mode:lr-tb;fill:#000000;fill-opacity:1;fill-rule:nonzero;stroke:none"
       id="text1005"
       x="176.7"
       y="-410.70001"><tspan
         x="176.7 181.38051 189.17854"
         y="-410.70001"
         id="tspan1003">ref</tspan></text><g
       id="g1007"
       transform="translate(154.86,422.51999)"><path
         d="m 0,0 h -0.84 0.06 l -0.84,-0.12 0.06,0.06 -0.84,-0.24 h 0.06 l -0.78,-0.3 -0.72,-0.3 h 0.06 l -0.66,-0.42 -0.66,-0.48 0.06,0.06 -1.14,-1.14 0.06,0.06 -0.48,-0.66 -0.42,-0.72 v 0.06 l -0.36,-0.72 -0.3,-0.78 0.06,0.06 -0.18,-0.78 v 0.06 l -0.12,-0.84 -0.06,-0.84 v 0.06 l 0.06,-0.9 v 0.06 l 0.12,-0.84 0.18,-0.78 -0.06,0.06 0.3,-0.78 v 0.06 l 0.36,-0.72 0.42,-0.72 -0.06,0.06 0.48,-0.6 0.54,-0.6 v 0.06 l 0.6,-0.54 H -5.1 l 0.66,-0.48 0.66,-0.42 -0.06,0.06 0.72,-0.36 0.78,-0.3 H -2.4 l 1.68,-0.36 h -0.12 60.78 -0.06 l 1.68,0.36 H 61.5 l 0.72,0.3 0.78,0.36 -0.06,-0.06 0.42,-0.66 H 63.3 l -0.78,-0.36 -0.72,-0.3 -0.06,-0.06 -1.68,-0.36 h -60.9 c -1.502,0.232 -2.758,0.629 -4.02,1.5 h -0.06 l -0.66,0.48 v 0.06 l -0.6,0.54 h -0.06 l -0.54,0.6 v 0.06 l -0.48,0.6 -0.42,0.72 -0.06,0.06 -0.36,0.72 -0.3,0.78 v 0.06 l -0.18,0.78 v 0.06 c -0.34,1.546 -0.169,3.721 0.48,5.16 v 0.06 l 0.36,0.72 h 0.06 l 0.42,0.72 V -3 l 0.48,0.66 h 0.06 l 1.14,1.14 v 0.06 l 0.66,0.48 h 0.06 l 0.66,0.42 0.06,0.06 0.72,0.3 0.78,0.3 0.84,0.24 h 0.06 L -0.9,0.78 H 0"
         style="fill:#000000;fill-opacity:1;fill-rule:nonzero;stroke:none"
         id="path1009" /></g><g
       id="g1011"
       transform="translate(217.8,407.51999)"><path
         d="M 0,0 0.66,0.42 H 0.6 L 1.26,0.9 1.86,1.44 1.8,1.38 2.34,1.98 2.82,2.58 V 2.52 L 3.24,3.24 H 3.18 L 3.54,3.96 V 3.9 l 0.3,0.78 V 4.62 L 4.02,5.4 4.14,6.24 V 6.18 L 4.2,7.08 V 7.02 L 4.14,7.86 4.02,8.7 V 8.64 L 3.84,9.42 V 9.36 L 3.54,10.14 3.18,10.86 3.24,10.8 2.82,11.52 2.34,12.18 2.4,12.12 1.26,13.26 V 13.2 L 0.6,13.68 H 0.66 L 0,14.1 h 0.06 l -0.78,0.3 -0.72,0.3 -0.84,0.24 0.06,-0.06 L -3.06,15 H -3 -62.94 v 0.78 h 59.1 c 0.885,0.058 1.805,-0.064 2.64,-0.36 h 0.06 l 0.72,-0.3 C 0.456,14.907 1.823,13.897 2.4,13.2 L 2.94,12.66 H 3 L 3.48,12 V 11.94 C 4.224,10.73 4.816,9.412 4.92,7.98 V 7.92 L 4.98,7.08 C 4.914,5.368 4.73,4.383 3.9,2.88 V 2.82 L 3.48,2.1 H 3.42 C 2.719,1.129 2.103,0.435 1.08,-0.24 L 0.42,-0.66"
         style="fill:#000000;fill-opacity:1;fill-rule:nonzero;stroke:none"
         id="path1013" /></g><text
       transform="scale(1,-1)"
       style="font-variant:normal;font-weight:normal;font-stretch:normal;font-size:13.98px;font-family:Arial;-inkscape-font-specification:ArialMT;writing-mode:lr-tb;fill:#000000;fill-opacity:1;fill-rule:nonzero;stroke:none"
       id="text1017"
       x="175.56"
       y="-362.94"><tspan
         x="175.56 183.32729 191.09457"
         y="-362.94"
         id="tspan1015">obj</tspan></text><g
       id="g1019"
       transform="translate(154.86,374.76001)"><path
         d="m 0,0 h -0.84 0.12 l -1.68,-0.36 0.06,0.06 -0.78,-0.3 -0.72,-0.36 h 0.06 l -0.66,-0.42 -0.66,-0.48 0.06,0.06 -0.6,-0.54 -0.54,-0.6 v 0.06 l -0.48,-0.6 H -6.6 L -7.02,-4.2 v 0.06 l -0.36,-0.72 -0.3,-0.78 0.06,0.06 -0.18,-0.78 v 0.06 l -0.12,-0.84 -0.06,-0.9 v 0.06 l 0.06,-0.84 v 0.06 l 0.12,-0.84 0.18,-0.78 -0.06,0.06 0.3,-0.78 v 0.06 l 0.36,-0.72 0.42,-0.72 v 0.06 l 0.48,-0.66 h -0.06 l 0.54,-0.54 v 0.06 l 0.6,-0.54 H -5.1 l 0.66,-0.54 0.66,-0.42 -0.06,0.06 0.72,-0.3 0.78,-0.3 H -2.4 l 0.84,-0.24 h -0.06 l 0.84,-0.12 h -0.06 60.78 -0.06 l 0.84,0.12 h -0.06 l 0.84,0.24 0.72,0.3 0.78,0.3 -0.06,-0.06 0.42,-0.66 H 63.3 l -0.78,-0.3 -0.72,-0.3 H 61.74 L 60.9,-16.56 60.84,-16.62 60,-16.74 H -0.84 c -0.982,0.039 -3.229,0.841 -4.02,1.44 l -0.06,0.06 -0.66,0.54 -0.6,0.54 c -2.601,2.405 -3.218,6.387 -1.92,9.6 v 0.06 l 0.36,0.72 h 0.06 l 0.42,0.72 V -3 l 0.48,0.6 0.54,0.6 0.06,0.06 0.6,0.54 0.66,0.48 h 0.06 l 0.66,0.42 v 0.06 l 0.72,0.36 h 0.06 l 0.78,0.3 h 0.06 L -0.9,0.78 H 0"
         style="fill:#000000;fill-opacity:1;fill-rule:nonzero;stroke:none"
         id="path1021" /></g><g
       id="g1023"
       transform="translate(217.8,359.70001)"><path
         d="M 0,0 0.66,0.42 H 0.6 L 1.26,0.96 1.86,1.5 V 1.44 L 2.4,1.98 H 2.34 L 2.82,2.64 V 2.58 L 3.24,3.3 H 3.18 L 3.54,4.02 V 3.96 l 0.3,0.78 V 4.68 L 4.02,5.46 4.14,6.3 V 6.24 L 4.2,7.08 V 7.02 L 4.14,7.92 4.02,8.76 V 8.7 L 3.84,9.48 V 9.42 l -0.3,0.78 -0.36,0.72 0.06,-0.06 -0.42,0.72 -0.48,0.6 v -0.06 l -0.54,0.6 h 0.06 l -0.6,0.54 V 13.2 L 0.6,13.68 H 0.66 L 0,14.1 h 0.06 l -0.78,0.36 -0.72,0.3 0.06,-0.06 -1.68,0.36 H -3 -62.94 v 0.78 h 60.06 l 1.68,-0.36 h 0.06 l 0.72,-0.3 0.78,-0.36 0.06,-0.06 0.66,-0.42 0.66,-0.48 H 1.8 L 2.4,13.32 V 13.26 L 2.94,12.66 3.42,12.06 3.48,12 3.9,11.28 4.26,10.56 V 10.5 L 4.56,9.72 4.62,9.66 4.8,8.88 4.92,8.04 V 7.98 L 4.98,7.08 V 7.02 L 4.92,6.18 4.8,5.34 V 5.28 L 4.62,4.5 4.56,4.44 C 3.893,2.668 3.305,1.564 1.8,0.36 H 1.74 L 1.08,-0.18 V -0.24 L 0.42,-0.66"
         style="fill:#000000;fill-opacity:1;fill-rule:nonzero;stroke:none"
         id="path1025" /></g><text
       transform="scale(1,-1)"
       style="font-variant:normal;font-weight:normal;font-stretch:normal;font-size:13.98px;font-family:Arial;-inkscape-font-specification:ArialMT;writing-mode:lr-tb;fill:#000000;fill-opacity:1;fill-rule:nonzero;stroke:none"
       id="text1029"
       x="176.7"
       y="-294.90009"><tspan
         x="176.7 181.38051 189.17854"
         y="-294.90009"
         id="tspan1027">ref</tspan></text><g
       id="g1031"
       transform="translate(154.92,306.72)"><path
         d="m 0,0 -0.84,-0.06 -0.84,-0.12 h 0.06 L -2.46,-0.36 -2.4,-0.3 -3.18,-0.6 -3.9,-0.96 h 0.06 l -0.66,-0.42 -0.66,-0.48 0.06,0.06 -0.6,-0.54 -0.54,-0.6 0.06,0.06 -0.48,-0.66 -0.42,-0.66 v 0.06 l -0.36,-0.72 -0.3,-0.78 0.06,0.06 -0.18,-0.84 v 0.06 l -0.12,-0.78 -0.06,-0.9 v 0.06 l 0.06,-0.84 v 0.06 l 0.12,-0.84 0.18,-0.78 -0.06,0.06 0.3,-0.78 v 0.06 l 0.36,-0.72 0.42,-0.72 v 0.06 l 0.48,-0.66 h -0.06 l 0.54,-0.6 v 0.06 l 0.6,-0.54 h -0.06 l 0.66,-0.48 0.66,-0.42 -0.06,0.06 0.72,-0.36 h -0.06 l 0.78,-0.24 0.84,-0.24 h -0.06 l 0.84,-0.12 0.84,-0.06 h -0.06 59.1 l 0.84,0.06 h -0.06 l 0.84,0.12 H 60.6 l 0.84,0.24 0.72,0.24 0.78,0.36 -0.06,-0.06 0.42,-0.66 h -0.06 l -0.78,-0.36 H 62.4 l -0.72,-0.24 -0.84,-0.24 -0.06,-0.06 -0.84,-0.12 -0.84,-0.06 H -0.06 l -0.84,0.06 c -1.16,0.124 -3.095,0.688 -4.02,1.44 h -0.06 l -0.66,0.48 v 0.06 l -0.6,0.54 H -6.3 l -0.54,0.6 v 0.06 l -0.48,0.66 -0.42,0.72 -0.06,0.06 -0.36,0.72 -0.3,0.78 v 0.06 l -0.18,0.78 v 0.06 c -0.346,1.524 -0.156,3.744 0.48,5.16 v 0.06 l 0.36,0.72 h 0.06 l 0.42,0.66 v 0.06 l 0.48,0.66 0.54,0.6 0.06,0.06 0.6,0.54 0.66,0.48 h 0.06 l 0.66,0.42 v 0.06 l 0.72,0.36 h 0.06 l 0.78,0.3 h 0.06 l 0.84,0.18 0.84,0.12 h 0.06 l 0.84,0.06"
         style="fill:#000000;fill-opacity:1;fill-rule:nonzero;stroke:none"
         id="path1033" /></g><g
       id="g1035"
       transform="translate(217.8,291.66)"><path
         d="M 0,0 0.66,0.42 H 0.6 L 1.26,0.9 1.86,1.44 1.8,1.38 2.34,1.98 2.82,2.64 V 2.58 L 3.24,3.3 H 3.18 L 3.54,4.02 V 3.96 l 0.3,0.78 V 4.68 L 4.02,5.46 4.14,6.3 V 6.24 L 4.2,7.08 V 7.02 L 4.14,7.92 4.02,8.7 V 8.64 L 3.84,9.48 V 9.42 l -0.3,0.78 -0.36,0.72 0.06,-0.06 -0.42,0.66 -0.48,0.66 v -0.06 l -0.54,0.6 h 0.06 l -0.6,0.54 V 13.2 L 0.6,13.68 H 0.66 L 0,14.1 h 0.06 l -0.78,0.36 -0.72,0.3 0.06,-0.06 -0.84,0.18 L -3.06,15 H -3 l -0.84,0.06 h -59.1 0.06 l -0.06,0.78 h 59.16 l 0.84,-0.06 0.84,-0.12 h 0.06 l 0.84,-0.18 h 0.06 l 0.72,-0.3 0.78,-0.36 0.06,-0.06 0.66,-0.42 0.66,-0.48 H 1.8 l 0.6,-0.54 v -0.06 l 0.54,-0.6 H 3 L 3.48,12 V 11.94 C 4.64,10.277 5.148,8.2 4.92,6.18 L 4.8,5.34 V 5.28 C 4.416,3.478 3.229,1.387 1.74,0.24 L 1.08,-0.24 0.42,-0.66"
         style="fill:#000000;fill-opacity:1;fill-rule:nonzero;stroke:none"
         id="path1037" /></g><text
       transform="scale(1,-1)"
       style="font-variant:normal;font-weight:normal;font-stretch:normal;font-size:13.98px;font-family:Arial;-inkscape-font-specification:ArialMT;writing-mode:lr-tb;fill:#000000;fill-opacity:1;fill-rule:nonzero;stroke:none"
       id="text1041"
       x="175.56"
       y="-247.14"><tspan
         x="175.56 183.32729 191.09457"
         y="-247.14"
         id="tspan1039">obj</tspan></text><g
       id="g1043"
       transform="translate(154.92,258.95999)"><path
         d="m 0,0 -0.84,-0.06 -0.84,-0.12 h 0.06 L -2.46,-0.36 -2.4,-0.3 -3.18,-0.6 -3.9,-0.96 h 0.06 l -0.66,-0.42 -0.66,-0.48 0.06,0.06 -0.6,-0.54 -0.54,-0.6 0.06,0.06 -0.48,-0.66 -0.42,-0.66 v 0.06 l -0.36,-0.72 -0.3,-0.78 0.06,0.06 -0.18,-0.84 v 0.06 L -7.98,-7.2 -8.04,-8.04 v 0.06 l 0.06,-0.84 v 0.06 l 0.12,-0.84 0.18,-0.78 -0.06,0.06 0.3,-0.78 0.36,-0.78 v 0.06 l 0.42,-0.66 v 0.06 l 0.48,-0.66 h -0.06 l 0.54,-0.6 v 0.06 l 0.6,-0.54 h -0.06 l 0.66,-0.48 0.66,-0.42 -0.06,0.06 0.72,-0.36 h -0.06 l 0.78,-0.24 0.84,-0.24 h -0.06 l 0.84,-0.12 0.84,-0.06 h -0.06 59.1 l 0.84,0.06 h -0.06 l 0.84,0.12 H 60.6 l 0.84,0.24 0.72,0.24 0.78,0.36 -0.06,-0.06 0.42,-0.66 h -0.06 l -0.78,-0.36 H 62.4 l -0.72,-0.24 -0.84,-0.24 -0.06,-0.06 -0.84,-0.12 -0.84,-0.06 H -0.06 l -0.84,0.06 c -1.16,0.124 -3.095,0.688 -4.02,1.44 h -0.06 l -0.66,0.48 v 0.06 l -0.6,0.54 H -6.3 l -0.54,0.6 v 0.06 l -0.48,0.66 -0.42,0.66 -0.06,0.06 -0.36,0.78 -0.3,0.78 v 0.06 l -0.18,0.78 v 0.06 c -0.347,1.487 -0.146,3.786 0.48,5.16 v 0.06 l 0.36,0.72 h 0.06 l 0.42,0.66 v 0.06 l 0.48,0.66 0.54,0.6 0.06,0.06 0.6,0.54 0.66,0.48 h 0.06 l 0.66,0.42 v 0.06 l 0.72,0.36 h 0.06 l 0.78,0.3 h 0.06 l 0.84,0.18 0.84,0.12 h 0.06 l 0.84,0.06"
         style="fill:#000000;fill-opacity:1;fill-rule:nonzero;stroke:none"
         id="path1045" /></g><g
       id="g1047"
       transform="translate(217.8,243.89999)"><path
         d="M 0,0 0.66,0.42 H 0.6 L 1.26,0.9 1.86,1.44 1.8,1.38 2.34,1.98 2.82,2.64 V 2.58 L 3.24,3.24 3.18,3.18 3.54,3.96 3.84,4.74 V 4.68 L 4.02,5.46 4.14,6.3 V 6.24 L 4.2,7.08 V 7.02 L 4.14,7.86 4.02,8.7 V 8.64 L 3.84,9.48 V 9.42 l -0.3,0.78 -0.36,0.72 0.06,-0.06 -0.42,0.66 -0.48,0.66 v -0.06 l -0.54,0.6 h 0.06 l -0.6,0.54 V 13.2 L 0.6,13.68 H 0.66 L 0,14.1 h 0.06 l -0.78,0.36 -0.72,0.3 0.06,-0.06 -0.84,0.18 L -3.06,15 H -3 l -0.84,0.06 h -59.1 0.06 l -0.06,0.78 h 59.16 l 0.84,-0.06 0.84,-0.12 h 0.06 l 0.84,-0.18 h 0.06 l 0.72,-0.3 0.78,-0.36 0.06,-0.06 0.66,-0.42 0.66,-0.48 H 1.8 l 0.6,-0.54 v -0.06 l 0.54,-0.6 H 3 L 3.48,12 V 11.94 C 4.644,10.278 5.139,8.199 4.92,6.18 L 4.8,5.34 V 5.28 C 4.37,3.334 3.308,1.509 1.74,0.24 L 1.08,-0.24 0.42,-0.66"
         style="fill:#000000;fill-opacity:1;fill-rule:nonzero;stroke:none"
         id="path1049" /></g><text
       transform="scale(1,-1)"
       style="font-style:italic;font-variant:normal;font-weight:normal;font-stretch:normal;font-size:12px;font-family:'Times New Roman';-inkscape-font-specification:'TimesNewRoman Italic';writing-mode:lr-tb;fill:#000000;fill-opacity:1;fill-rule:nonzero;stroke:none"
       id="text1053"
       x="156.72"
       y="-265.2601"><tspan
         x="156.72 163.3848 169.37759"
         y="-265.2601"
         id="tspan1051">Tag</tspan></text><path
       d="m 184.02,401.28 h 0.78 V 402 h -0.78 z"
       style="fill:#000000;fill-opacity:1;fill-rule:nonzero;stroke:none"
       id="path1055" /><g
       id="g1057"
       transform="translate(184.02,401.64001)"><path
         d="M 0,0 H 0.78 0"
         style="fill:#000000;fill-opacity:1;fill-rule:nonzero;stroke:none"
         id="path1059" /></g><g
       id="g1061"
       transform="translate(184.38,395.34)"><path
         d="M 0,0 H 3.36 L 3.18,-0.66 0.48,-9.84 0,-11.52 -0.48,-9.84 -3.12,-0.66 -3.3,0 h 0.66 l 0.48,-0.36 2.64,-9.18 -0.96,-0.3 v 0.3 l 2.7,9.18 0.96,-0.3 L 2.7,-1.02 H 0"
         style="fill:#000000;fill-opacity:1;fill-rule:nonzero;stroke:none"
         id="path1063" /></g><path
       d="m 181.74,394.32 h 2.64 v 1.02 h -2.64 z"
       style="fill:#000000;fill-opacity:1;fill-rule:nonzero;stroke:none"
       id="path1065" /><g
       id="g1067"
       transform="translate(184.38,394.85999)"><path
         d="M 0,0 H 2.7 L 0,-9.18 -2.64,0"
         style="fill:#000000;fill-opacity:1;fill-rule:evenodd;stroke:none"
         id="path1069" /></g><path
       d="m 184.02,405.84 h 0.78 v 0.36 h -0.78 z"
       style="fill:#000000;fill-opacity:1;fill-rule:nonzero;stroke:none"
       id="path1071" /><path
       d="m 184.02,395.04 h 0.78 v 10.8 h -0.78 z"
       style="fill:#000000;fill-opacity:1;fill-rule:nonzero;stroke:none"
       id="path1073" /><g
       id="g1075"
       transform="translate(184.38,386.45999)"><path
         d="M 0,0 H 3.36 L 3.18,-0.66 0.48,-9.9 0,-11.58 -3.12,-0.66 -3.3,0 h 0.66 l 0.48,-0.36 2.64,-9.24 -0.96,-0.3 v 0.3 l 2.7,9.24 0.96,-0.3 L 2.7,-1.02 H 0"
         style="fill:#000000;fill-opacity:1;fill-rule:nonzero;stroke:none"
         id="path1077" /></g><path
       d="m 181.74,385.44 h 2.64 v 1.02 h -2.64 z"
       style="fill:#000000;fill-opacity:1;fill-rule:nonzero;stroke:none"
       id="path1079" /><g
       id="g1081"
       transform="translate(184.38,385.98001)"><path
         d="M 0,0 H 2.7 L 0,-9.24 -2.64,0"
         style="fill:#000000;fill-opacity:1;fill-rule:evenodd;stroke:none"
         id="path1083" /></g><path
       d="m 184.02,392.76 h 0.78 v 0.36 h -0.78 z"
       style="fill:#000000;fill-opacity:1;fill-rule:nonzero;stroke:none"
       id="path1085" /><path
       d="m 184.02,386.1 h 0.78 v 6.66 h -0.78 z"
       style="fill:#000000;fill-opacity:1;fill-rule:nonzero;stroke:none"
       id="path1087" /><path
       d="m 184.02,285.48 h 0.78 v 0.72 h -0.78 z"
       style="fill:#000000;fill-opacity:1;fill-rule:nonzero;stroke:none"
       id="path1089" /><g
       id="g1091"
       transform="translate(184.02,285.84)"><path
         d="M 0,0 H 0.78 0"
         style="fill:#000000;fill-opacity:1;fill-rule:nonzero;stroke:none"
         id="path1093" /></g><g
       id="g1095"
       transform="translate(184.38,279.54001)"><path
         d="M 0,0 H 3.36 L 3.18,-0.66 0.48,-9.9 0,-11.58 -3.12,-0.66 -3.3,0 h 0.66 l 0.48,-0.36 2.64,-9.24 -0.96,-0.3 v 0.3 l 2.7,9.24 0.96,-0.3 L 2.7,-1.02 H 0"
         style="fill:#000000;fill-opacity:1;fill-rule:nonzero;stroke:none"
         id="path1097" /></g><path
       d="m 181.74,278.52 h 2.64 v 1.02 h -2.64 z"
       style="fill:#000000;fill-opacity:1;fill-rule:nonzero;stroke:none"
       id="path1099" /><g
       id="g1101"
       transform="translate(184.38,279.06)"><path
         d="M 0,0 H 2.7 L 0,-9.24 -2.64,0"
         style="fill:#000000;fill-opacity:1;fill-rule:evenodd;stroke:none"
         id="path1103" /></g><path
       d="m 184.02,290.04 h 0.78 v 0.36 h -0.78 z"
       style="fill:#000000;fill-opacity:1;fill-rule:nonzero;stroke:none"
       id="path1105" /><path
       d="m 184.02,279.18 h 0.78 v 10.86 h -0.78 z"
       style="fill:#000000;fill-opacity:1;fill-rule:nonzero;stroke:none"
       id="path1107" /><g
       id="g1109"
       transform="translate(184.38,270.60001)"><path
         d="M 0,0 H 3.36 L 3.18,-0.66 0.48,-9.84 0,-11.52 -0.48,-9.84 -3.12,-0.66 -3.3,0 h 0.66 l 0.48,-0.36 2.64,-9.18 -0.96,-0.3 v 0.3 l 2.7,9.18 0.96,-0.3 L 2.7,-1.02 H 0"
         style="fill:#000000;fill-opacity:1;fill-rule:nonzero;stroke:none"
         id="path1111" /></g><path
       d="m 181.74,269.58 h 2.64 v 1.02 h -2.64 z"
       style="fill:#000000;fill-opacity:1;fill-rule:nonzero;stroke:none"
       id="path1113" /><g
       id="g1115"
       transform="translate(184.38,270.12)"><path
         d="M 0,0 H 2.7 L 0,-9.18 -2.64,0"
         style="fill:#000000;fill-opacity:1;fill-rule:evenodd;stroke:none"
         id="path1117" /></g><path
       d="m 184.02,276.96 h 0.78 v 0.36 h -0.78 z"
       style="fill:#000000;fill-opacity:1;fill-rule:nonzero;stroke:none"
       id="path1119" /><path
       d="m 184.02,270.3 h 0.78 v 6.66 h -0.78 z"
       style="fill:#000000;fill-opacity:1;fill-rule:nonzero;stroke:none"
       id="path1121" /><path
       d="m 117.48,700.8 h 392.16 v 0.24 H 117.48 Z"
       style="fill:#808080;fill-opacity:1;fill-rule:nonzero;stroke:none"
       id="path1123" /><path
       d="m 509.4,123.48 h 0.24 v 577.44 h -0.24 z"
       style="fill:#808080;fill-opacity:1;fill-rule:nonzero;stroke:none"
       id="path1125" /><path
       d="m 117.36,123.48 h 392.16 v 0.24 H 117.36 Z"
       style="fill:#808080;fill-opacity:1;fill-rule:nonzero;stroke:none"
       id="path1127" /><path
       d="m 117.36,123.6 h 0.24 v 577.44 h -0.24 z"
       style="fill:#808080;fill-opacity:1;fill-rule:nonzero;stroke:none"
       id="path1129" /><text
       transform="scale(1,-1)"
       style="font-variant:normal;font-weight:normal;font-stretch:normal;font-size:13.98px;font-family:Arial;-inkscape-font-specification:ArialMT;writing-mode:lr-tb;fill:#000000;fill-opacity:1;fill-rule:nonzero;stroke:none"
       id="text1133"
       x="175.56"
       y="-152.4001"><tspan
         x="175.56 183.32729 191.09457"
         y="-152.4001"
         id="tspan1131">obj</tspan></text><g
       id="g1135"
       transform="translate(154.86,164.22)"><path
         d="m 0,0 h -0.84 0.12 l -1.68,-0.36 0.06,0.06 -0.78,-0.3 -0.72,-0.36 h 0.06 l -0.66,-0.42 -0.66,-0.48 0.06,0.06 -0.6,-0.54 -0.54,-0.6 v 0.06 l -0.48,-0.6 H -6.6 L -7.02,-4.2 v 0.06 l -0.36,-0.72 -0.3,-0.78 0.06,0.06 -0.18,-0.78 v 0.06 l -0.12,-0.84 -0.06,-0.9 v 0.06 l 0.06,-0.84 v 0.06 l 0.12,-0.84 0.18,-0.78 -0.06,0.06 0.3,-0.78 v 0.06 l 0.36,-0.72 0.42,-0.72 v 0.06 l 0.48,-0.66 h -0.06 l 1.14,-1.14 -0.06,0.06 0.66,-0.48 0.66,-0.42 -0.06,0.06 0.72,-0.3 0.78,-0.3 H -2.4 l 0.84,-0.24 h -0.06 l 0.84,-0.12 h -0.06 60.78 -0.06 l 0.84,0.12 h -0.06 l 0.84,0.24 0.72,0.3 0.78,0.3 -0.06,-0.06 0.42,-0.66 H 63.3 l -0.78,-0.3 -0.72,-0.3 H 61.74 L 60.9,-16.56 60.84,-16.62 60,-16.74 H -0.84 c -0.982,0.039 -3.229,0.841 -4.02,1.44 h -0.06 l -0.66,0.48 v 0.06 l -1.2,1.2 -0.48,0.66 -0.42,0.72 -0.06,0.06 -0.36,0.72 -0.3,0.78 v 0.06 l -0.18,0.78 v 0.06 c -0.341,1.541 -0.167,3.728 0.48,5.16 v 0.06 l 0.36,0.72 h 0.06 l 0.42,0.72 V -3 l 0.48,0.6 0.54,0.6 0.06,0.06 0.6,0.54 0.66,0.48 h 0.06 l 0.66,0.42 v 0.06 l 0.72,0.36 h 0.06 l 0.78,0.3 h 0.06 L -0.9,0.78 H 0"
         style="fill:#000000;fill-opacity:1;fill-rule:nonzero;stroke:none"
         id="path1137" /></g><g
       id="g1139"
       transform="translate(217.8,149.16)"><path
         d="M 0,0 0.66,0.42 H 0.6 L 1.26,0.9 V 0.84 L 2.4,1.98 H 2.34 L 2.82,2.64 V 2.58 L 3.24,3.3 H 3.18 L 3.54,4.02 V 3.96 l 0.3,0.78 V 4.68 L 4.02,5.46 4.14,6.3 V 6.24 L 4.2,7.08 V 7.02 L 4.14,7.92 4.02,8.76 V 8.7 L 3.84,9.48 V 9.42 l -0.3,0.78 -0.36,0.72 0.06,-0.06 -0.42,0.72 -0.48,0.6 v -0.06 l -0.54,0.6 h 0.06 l -0.6,0.54 V 13.2 L 0.6,13.68 H 0.66 L 0,14.1 h 0.06 l -0.78,0.36 -0.72,0.3 0.06,-0.06 -1.68,0.36 H -3 -62.94 v 0.78 h 60.06 l 1.68,-0.36 h 0.06 l 0.72,-0.3 0.78,-0.36 0.06,-0.06 0.66,-0.42 0.66,-0.48 H 1.8 L 2.4,13.32 V 13.26 L 2.94,12.66 3.42,12.06 3.48,12 3.9,11.28 4.26,10.56 V 10.5 L 4.56,9.72 4.62,9.66 C 5.593,6.097 4.534,2.644 1.74,0.24 L 1.08,-0.24 0.42,-0.66"
         style="fill:#000000;fill-opacity:1;fill-rule:nonzero;stroke:none"
         id="path1141" /></g><path
       d="m 184.02,190.5 h 0.78 v 0.72 h -0.78 z"
       style="fill:#000000;fill-opacity:1;fill-rule:nonzero;stroke:none"
       id="path1143" /><g
       id="g1145"
       transform="translate(184.02,190.86)"><path
         d="M 0,0 H 0.78 0"
         style="fill:#000000;fill-opacity:1;fill-rule:nonzero;stroke:none"
         id="path1147" /></g><g
       id="g1149"
       transform="translate(184.38,184.56)"><path
         d="M 0,0 H 3.36 L 3.18,-0.66 0.48,-9.9 0,-11.58 -3.12,-0.66 -3.3,0 h 0.66 l 0.48,-0.36 2.64,-9.24 -0.96,-0.3 v 0.3 l 2.7,9.24 0.96,-0.3 L 2.7,-1.02 H 0"
         style="fill:#000000;fill-opacity:1;fill-rule:nonzero;stroke:none"
         id="path1151" /></g><path
       d="m 181.74,183.54 h 2.64 v 1.02 h -2.64 z"
       style="fill:#000000;fill-opacity:1;fill-rule:nonzero;stroke:none"
       id="path1153" /><g
       id="g1155"
       transform="translate(184.38,184.08)"><path
         d="M 0,0 H 2.7 L 0,-9.24 -2.64,0"
         style="fill:#000000;fill-opacity:1;fill-rule:evenodd;stroke:none"
         id="path1157" /></g><path
       d="m 184.02,195.06 h 0.78 v 0.36 h -0.78 z"
       style="fill:#000000;fill-opacity:1;fill-rule:nonzero;stroke:none"
       id="path1159" /><path
       d="m 184.02,184.2 h 0.78 v 10.86 h -0.78 z"
       style="fill:#000000;fill-opacity:1;fill-rule:nonzero;stroke:none"
       id="path1161" /><g
       id="g1163"
       transform="translate(184.38,175.67999)"><path
         d="M 0,0 H 3.36 L 3.18,-0.66 0.48,-9.9 0,-11.58 -3.12,-0.66 -3.3,0 h 0.66 l 0.48,-0.36 2.64,-9.24 -0.96,-0.3 v 0.3 l 2.7,9.24 0.96,-0.3 L 2.7,-1.02 H 0"
         style="fill:#000000;fill-opacity:1;fill-rule:nonzero;stroke:none"
         id="path1165" /></g><path
       d="m 181.74,174.66 h 2.64 v 1.02 h -2.64 z"
       style="fill:#000000;fill-opacity:1;fill-rule:nonzero;stroke:none"
       id="path1167" /><g
       id="g1169"
       transform="translate(184.38,175.2)"><path
         d="M 0,0 H 2.7 L 0,-9.24 -2.64,0"
         style="fill:#000000;fill-opacity:1;fill-rule:evenodd;stroke:none"
         id="path1171" /></g><path
       d="m 184.02,181.98 h 0.78 v 0.36 h -0.78 z"
       style="fill:#000000;fill-opacity:1;fill-rule:nonzero;stroke:none"
       id="path1173" /><path
       d="m 184.02,175.32 h 0.78 v 6.66 h -0.78 z"
       style="fill:#000000;fill-opacity:1;fill-rule:nonzero;stroke:none"
       id="path1175" /><path
       d="m 117.36,606.72 h 0.12 v 0.24 h -0.12 z"
       style="fill:#808080;fill-opacity:1;fill-rule:nonzero;stroke:none"
       id="path1177" /><path
       d="m 117.48,606.72 h 392.16 v 0.24 H 117.48 Z"
       style="fill:#808080;fill-opacity:1;fill-rule:nonzero;stroke:none"
       id="path1179" /><path
       d="m 117.36,519.12 h 0.12 v 0.24 h -0.12 z"
       style="fill:#808080;fill-opacity:1;fill-rule:nonzero;stroke:none"
       id="path1181" /><path
       d="m 117.48,519.12 h 392.16 v 0.24 H 117.48 Z"
       style="fill:#808080;fill-opacity:1;fill-rule:nonzero;stroke:none"
       id="path1183" /><path
       d="m 117.36,327.78 h 0.12 v 0.24 h -0.12 z"
       style="fill:#808080;fill-opacity:1;fill-rule:nonzero;stroke:none"
       id="path1185" /><path
       d="m 117.48,327.78 h 392.16 v 0.24 H 117.48 Z"
       style="fill:#808080;fill-opacity:1;fill-rule:nonzero;stroke:none"
       id="path1187" /><path
       d="m 117.36,223.98 h 0.12 v 0.24 h -0.12 z"
       style="fill:#808080;fill-opacity:1;fill-rule:nonzero;stroke:none"
       id="path1189" /><path
       d="m 117.48,223.98 h 392.16 v 0.24 H 117.48 Z"
       style="fill:#808080;fill-opacity:1;fill-rule:nonzero;stroke:none"
       id="path1191" /><g
       id="g1193"
       transform="translate(190.5,201.72)"><path
         d="m 0,0 -0.06,0.66 -0.06,0.6 V 1.2 L -0.3,1.8 V 1.74 L -0.78,2.94 -0.72,2.88 -1.08,3.42 -1.44,3.9 -1.38,3.84 -2.22,4.68 -2.76,5.1 -2.7,5.04 -3.18,5.34 h 0.06 L -4.32,5.82 -4.92,6 -4.8,5.94 -6.12,6.06 h 0.06 L -6.72,6 -7.32,5.94 -7.26,6 -7.86,5.82 H -7.8 L -9,5.34 -9.54,5.04 -9.42,5.1 -9.9,4.68 -10.74,3.84 V 3.9 L -11.1,3.42 h 0.06 L -11.4,2.88 v 0.06 l -0.48,-1.2 V 1.8 L -12.06,1.2 -12,1.26 -12.06,0.66 -12.12,0 v 0.06 l 0.12,-1.32 -0.06,0.12 0.18,-0.6 0.48,-1.2 -0.06,0.12 0.36,-0.48 0.06,-0.06 0.36,-0.54 -0.06,0.06 0.84,-0.84 -0.06,0.06 -0.42,-0.66 -0.48,0.48 c -0.996,0.905 -1.621,2.121 -1.92,3.42 v 0.06 l -0.06,0.66 c -0.205,1.538 0.205,3.263 1.14,4.5 V 3.9 l 0.36,0.48 h 0.06 c 3.784,4.661 11.351,2.313 12,-3.66 L 0.78,0.06"
         style="fill:#000000;fill-opacity:1;fill-rule:nonzero;stroke:none"
         id="path1195" /></g><g
       id="g1197"
       transform="translate(180.53999,197.10001)"><path
         d="m 0,0 0.54,-0.36 0.48,-0.36 -0.06,0.06 1.2,-0.48 H 2.1 L 3.3,-1.38 H 3.24 L 3.9,-1.44 H 3.84 L 4.5,-1.38 H 4.44 l 0.66,0.12 0.6,0.12 H 5.64 l 1.2,0.48 -0.12,-0.06 0.48,0.36 H 7.26 L 7.8,0 7.74,-0.06 8.58,0.78 8.52,0.72 8.88,1.26 V 1.32 L 9.24,1.8 9.18,1.68 9.66,2.88 9.84,3.48 V 3.36 L 9.96,4.68 V 4.62 l 0.78,0.06 V 4.62 L 10.68,3.96 10.62,3.3 10.56,3.24 10.38,2.64 V 2.58 L 9.9,1.38 9.84,1.32 9.48,0.84 H 9.54 L 9.18,0.3 8.22,-0.66 7.68,-1.02 v 0.06 L 7.2,-1.32 7.14,-1.38 C 5.899,-1.9 5.866,-1.968 4.56,-2.16 L 3.9,-2.22 H 3.84 c -1.369,0.082 -1.946,0.295 -3.18,0.84 l -0.12,0.06 -0.48,0.36 0.06,-0.06 -0.54,0.36"
         style="fill:#000000;fill-opacity:1;fill-rule:nonzero;stroke:none"
         id="path1199" /></g><g
       id="g1201"
       transform="translate(185.22,484.56)"><path
         d="M 0,0 H 3.3 L 3.12,-0.66 0,-11.58 -3.12,-0.66 -3.3,0 h 0.66 l 0.48,-0.36 2.64,-9.24 -0.96,-0.3 v 0.3 l 2.64,9.24 0.96,-0.3 -0.48,-0.36 H 0"
         style="fill:#000000;fill-opacity:1;fill-rule:nonzero;stroke:none"
         id="path1203" /></g><path
       d="m 182.58,483.54 h 2.64 v 1.02 h -2.64 z"
       style="fill:#000000;fill-opacity:1;fill-rule:nonzero;stroke:none"
       id="path1205" /><g
       id="g1207"
       transform="translate(185.22,484.07999)"><path
         d="M 0,0 H 2.64 L 0,-9.24 -2.64,0"
         style="fill:#000000;fill-opacity:1;fill-rule:evenodd;stroke:none"
         id="path1209" /></g><path
       d="m 184.86,493.26 h 0.78 v 0.36 h -0.78 z"
       style="fill:#000000;fill-opacity:1;fill-rule:nonzero;stroke:none"
       id="path1211" /><path
       d="m 184.86,484.2 h 0.78 v 9.06 h -0.78 z"
       style="fill:#000000;fill-opacity:1;fill-rule:nonzero;stroke:none"
       id="path1213" /><text
       transform="scale(1,-1)"
       style="font-variant:normal;font-weight:normal;font-stretch:normal;font-size:13.98px;font-family:Arial;-inkscape-font-specification:ArialMT;writing-mode:lr-tb;fill:#000000;fill-opacity:1;fill-rule:nonzero;stroke:none"
       id="text1217"
       x="175.56"
       y="-460.85999"><tspan
         x="175.56 183.32729 191.09457"
         y="-460.85999"
         id="tspan1215">obj</tspan></text><g
       id="g1219"
       transform="translate(154.86,472.67999)"><path
         d="m 0,0 h -0.84 0.12 l -1.68,-0.36 0.06,0.06 -0.78,-0.3 -0.72,-0.36 h 0.06 l -0.66,-0.42 -0.66,-0.48 0.06,0.06 -0.6,-0.54 -0.54,-0.6 v 0.06 l -0.48,-0.6 H -6.6 L -7.02,-4.2 v 0.06 l -0.36,-0.72 -0.3,-0.78 0.06,0.06 -0.18,-0.78 v 0.06 l -0.12,-0.84 -0.06,-0.9 v 0.06 l 0.06,-0.84 v 0.06 l 0.12,-0.84 0.18,-0.78 -0.06,0.06 0.3,-0.78 v 0.06 l 0.36,-0.72 0.42,-0.72 v 0.06 l 0.48,-0.66 h -0.06 l 0.54,-0.6 v 0.06 l 0.6,-0.54 H -5.1 l 0.66,-0.48 0.66,-0.42 -0.06,0.06 0.72,-0.3 0.78,-0.3 H -2.4 l 0.84,-0.24 h -0.06 l 0.84,-0.12 h -0.06 60.78 -0.06 l 0.84,0.12 h -0.06 l 0.84,0.24 0.72,0.3 0.78,0.3 -0.06,-0.06 0.42,-0.66 H 63.3 l -0.78,-0.3 -0.72,-0.3 H 61.74 L 60.9,-16.56 60.84,-16.62 60,-16.74 H -0.84 c -0.982,0.039 -3.229,0.841 -4.02,1.44 h -0.06 l -0.66,0.48 v 0.06 l -0.6,0.54 h -0.06 l -0.54,0.6 v 0.06 l -0.48,0.66 -0.42,0.72 -0.06,0.06 -0.36,0.72 -0.3,0.78 v 0.06 l -0.18,0.78 v 0.06 c -0.341,1.541 -0.167,3.728 0.48,5.16 v 0.06 l 0.36,0.72 h 0.06 l 0.42,0.72 V -3 l 0.48,0.6 0.54,0.6 0.06,0.06 0.6,0.54 0.66,0.48 h 0.06 l 0.66,0.42 v 0.06 l 0.72,0.36 h 0.06 l 0.78,0.3 h 0.06 L -0.9,0.78 H 0"
         style="fill:#000000;fill-opacity:1;fill-rule:nonzero;stroke:none"
         id="path1221" /></g><g
       id="g1223"
       transform="translate(217.8,457.62)"><path
         d="M 0,0 0.66,0.42 H 0.6 L 1.26,0.9 1.86,1.44 1.8,1.38 2.34,1.98 2.82,2.64 V 2.58 L 3.24,3.3 H 3.18 L 3.54,4.02 V 3.96 l 0.3,0.78 V 4.68 L 4.02,5.46 4.14,6.3 V 6.24 L 4.2,7.08 V 7.02 L 4.14,7.92 4.02,8.76 V 8.7 L 3.84,9.48 V 9.42 l -0.3,0.78 -0.36,0.72 0.06,-0.06 -0.42,0.72 -0.48,0.6 v -0.06 l -0.54,0.6 h 0.06 l -0.6,0.54 V 13.2 L 0.6,13.68 H 0.66 L 0,14.1 h 0.06 l -0.78,0.36 -0.72,0.3 0.06,-0.06 -1.68,0.36 H -3 -62.94 v 0.78 h 60.06 l 1.68,-0.36 h 0.06 l 0.72,-0.3 0.78,-0.36 0.06,-0.06 0.66,-0.42 0.66,-0.48 H 1.8 L 2.4,13.32 V 13.26 L 2.94,12.66 3.42,12.06 3.48,12 3.9,11.28 4.26,10.56 V 10.5 L 4.56,9.72 4.62,9.66 C 5.601,6.162 4.517,2.573 1.74,0.24 L 1.08,-0.24 0.42,-0.66"
         style="fill:#000000;fill-opacity:1;fill-rule:nonzero;stroke:none"
         id="path1225" /></g><path
       d="m 117.36,441 h 0.12 v 0.24 h -0.12 z"
       style="fill:#808080;fill-opacity:1;fill-rule:nonzero;stroke:none"
       id="path1227" /><path
       d="m 117.48,441 h 392.16 v 0.24 H 117.48 Z"
       style="fill:#808080;fill-opacity:1;fill-rule:nonzero;stroke:none"
       id="path1229" /><g
       id="g1231"
       transform="translate(191.46001,500.64001)"><path
         d="M 0,0 V 0.66 0.6 L -0.12,1.26 V 1.2 L -0.48,2.4 V 2.34 l -0.3,0.6 0.06,-0.06 -0.3,0.48 -0.36,0.54 0.06,-0.06 -0.42,0.42 -0.48,0.42 -0.48,0.36 0.06,-0.06 -0.54,0.36 h 0.06 L -3.66,5.58 -4.26,5.82 -4.86,6 -4.74,5.94 -6.06,6.06 H -6 L -7.32,5.94 -7.26,6 -7.86,5.82 H -7.8 L -8.4,5.58 -8.94,5.34 h 0.06 L -9.42,4.98 V 5.04 L -9.9,4.68 h 0.06 l -0.48,-0.42 -0.42,-0.42 0.06,0.06 -0.36,-0.54 -0.3,-0.48 v 0.06 l -0.3,-0.6 V 2.4 L -12,1.2 -11.94,1.26 -12.06,0.6 v 0.06 -1.26 0.06 l 0.12,-0.66 -0.06,0.06 0.36,-1.2 v 0.06 l 0.3,-0.6 0.3,-0.48 0.36,-0.54 -0.06,0.06 0.42,-0.42 v 0.06 l 0.48,-0.42 H -9.9 l -0.48,-0.6 -0.48,0.42 -0.42,0.42 c -0.9,1.249 -1.059,1.511 -1.44,3 v 0.06 l -0.12,0.66 c -0.051,1.553 0.011,1.832 0.48,3.3 V 2.7 l 0.3,0.6 H -12 l 0.3,0.48 C -8.083,9.097 -0.069,7.157 0.78,0.66 V 0"
         style="fill:#000000;fill-opacity:1;fill-rule:nonzero;stroke:none"
         id="path1233" /></g><g
       id="g1235"
       transform="translate(181.56,496.01999)"><path
         d="M 0,0 0.48,-0.36 1.02,-0.72 0.96,-0.66 1.5,-0.9 2.1,-1.14 H 2.04 l 0.6,-0.18 H 2.58 L 3.9,-1.44 H 3.84 l 1.32,0.12 H 5.04 l 0.6,0.18 0.6,0.24 0.54,0.24 -0.06,-0.06 0.54,0.36 H 7.2 L 7.68,0 8.16,0.42 V 0.36 L 8.58,0.78 8.52,0.72 8.88,1.26 9.18,1.74 H 9.12 l 0.3,0.6 V 2.28 l 0.36,1.2 V 3.42 L 9.9,4.08 v -0.06 0.6 h 0.78 V 4.02 C 10.362,2.067 9.489,0.052 7.68,-0.96 V -1.02 L 7.14,-1.38 H 7.08 C 5.836,-1.928 5.275,-2.168 3.9,-2.22 H 3.84 L 3.18,-2.16 C 2.472,-2.212 0.614,-1.474 0.06,-1.02 L 0,-0.96 -0.48,-0.6"
         style="fill:#000000;fill-opacity:1;fill-rule:nonzero;stroke:none"
         id="path1237" /></g><path
       d="m 243,609.6 h 255 v 82.74 H 243 Z"
       style="fill:#ffffff;fill-opacity:1;fill-rule:nonzero;stroke:none"
       id="path1239" /><text
       transform="scale(1,-1)"
       style="font-variant:normal;font-weight:normal;font-stretch:normal;font-size:9.96px;font-family:'Times New Roman';-inkscape-font-specification:TimesNewRomanPSMT;writing-mode:lr-tb;fill:#000000;fill-opacity:1;fill-rule:nonzero;stroke:none"
       id="text1245"
       x="243"
       y="-685.68011"><tspan
         x="243 250.20407 255.24384 259.13123 261.91306 266.90601 271.89893 274.68076 279.11597 284.1557 288.59689 291.92651 295.25613 300.24908 307.45316 312.49292 315.25482 320.24777 325.24072 328.02255 332.45773 336.89291 339.67474 344.10992 347.99731 353.03708 357.47824 362.51999 367.51794 372.51587 376.95602 380.29065 383.07745 388.07538 391.40997 396.4079 401.40582 405.84601 410.88574 414.18549 418.62567 421.41248 425.85266 428.63947 431.42627 436.42419 441.42212 445.31451 450.31244 453.09924 458.09717 463.07715 467.51733 471.95749 476.39764 480.83783 484.73019 488.62256 493.06274"
         y="-685.68011"
         id="tspan1241">A single arrow indicates a one-to-one relationship accessed</tspan><tspan
         x="243 250.19611 252.96996 255.79163 260.77164 263.2666 266.04047 271.02545 275.45267 277.94763 281.26932 286.30908 291.28906 294.06293 296.88458 301.86957 306.29678"
         y="-673.67828"
         id="tspan1243">with the routine </tspan></text><text
       transform="scale(1,-1)"
       style="font-variant:normal;font-weight:bold;font-stretch:normal;font-size:9.96px;font-family:'Times New Roman';-inkscape-font-specification:TimesNewRomanPS-BoldMT;writing-mode:lr-tb;fill:#000000;fill-opacity:1;fill-rule:nonzero;stroke:none"
       id="text1249"
       x="308.81567"
       y="-673.67828"><tspan
         x="308.81567 313.82855 319.34738 322.14914 327.16199 332.73264 337.74548 343.31613 348.83496 351.63672 356.09183 359.44138"
         y="-673.67828"
         id="tspan1247">vpi_handle()</tspan></text><text
       transform="scale(1,-1)"
       style="font-variant:normal;font-weight:normal;font-stretch:normal;font-size:9.96px;font-family:'Times New Roman';-inkscape-font-specification:TimesNewRomanPSMT;writing-mode:lr-tb;fill:#000000;fill-opacity:1;fill-rule:nonzero;stroke:none"
       id="text1255"
       x="362.63953"
       y="-673.67828"><tspan
         x="362.63953"
         y="-673.67828"
         id="tspan1251">.</tspan><tspan
         x="243 248.54871 253.53967 256.86731 260.88718 265.32037 270.31131 274.74451 282.50436 287.4953 290.27515 294.70834 297.48819 301.50803 308.76587 311.54572 316.53668 320.96988 325.96082"
         y="-649.67468"
         id="tspan1253">For example: Given </tspan></text><text
       transform="scale(1,-1)"
       style="font-variant:normal;font-weight:bold;font-stretch:normal;font-size:9.96px;font-family:'Times New Roman';-inkscape-font-specification:TimesNewRomanPS-BoldMT;writing-mode:lr-tb;fill:#000000;fill-opacity:1;fill-rule:nonzero;stroke:none"
       id="text1259"
       x="330.06036"
       y="-649.67468"><tspan
         x="330.06036 335.04333 340.58411 343.35596 351.10782 356.14758 361.68835 367.2291 370.00095"
         y="-649.67468"
         id="tspan1257">vpiHandle</tspan></text><text
       transform="scale(1,-1)"
       style="font-variant:normal;font-weight:normal;font-stretch:normal;font-size:9.96px;font-family:'Times New Roman';-inkscape-font-specification:TimesNewRomanPSMT;writing-mode:lr-tb;fill:#000000;fill-opacity:1;fill-rule:nonzero;stroke:none"
       id="text1263"
       x="378.4819"
       y="-649.67468"><tspan
         x="378.4819 383.52167 387.95685 391.28647 394.0683 398.50348 403.49643 406.27826 410.71347"
         y="-649.67468"
         id="tspan1261">variable </tspan></text><text
       transform="scale(1,-1)"
       style="font-variant:normal;font-weight:normal;font-stretch:normal;font-size:9px;font-family:'Courier New';-inkscape-font-specification:CourierNew;writing-mode:lr-tb;fill:#000000;fill-opacity:1;fill-rule:nonzero;stroke:none"
       id="text1267"
       x="414.72"
       y="-649.68011"><tspan
         x="414.72 420.11911 425.51819 430.9173 436.31641"
         y="-649.68011"
         id="tspan1265">ref_h</tspan></text><text
       transform="scale(1,-1)"
       style="font-variant:normal;font-weight:normal;font-stretch:normal;font-size:9.96px;font-family:'Times New Roman';-inkscape-font-specification:TimesNewRomanPSMT;writing-mode:lr-tb;fill:#000000;fill-opacity:1;fill-rule:nonzero;stroke:none"
       id="text1271"
       x="445.73987"
       y="-649.68011"><tspan
         x="445.73987 450.71985 454.07938 458.09921 460.86115 465.84113 470.88089 475.32205"
         y="-649.68011"
         id="tspan1269">of type </tspan></text><text
       transform="scale(1,-1)"
       style="font-variant:normal;font-weight:normal;font-stretch:normal;font-size:9px;font-family:'Courier New';-inkscape-font-specification:CourierNew;writing-mode:lr-tb;fill:#000000;fill-opacity:1;fill-rule:nonzero;stroke:none"
       id="text1275"
       x="479.34"
       y="-649.68011"><tspan
         x="479.34 484.73911 490.13821"
         y="-649.68011"
         id="tspan1273">ref</tspan></text><text
       transform="scale(1,-1)"
       style="font-variant:normal;font-weight:normal;font-stretch:normal;font-size:9.96px;font-family:'Times New Roman';-inkscape-font-specification:TimesNewRomanPSMT;writing-mode:lr-tb;fill:#000000;fill-opacity:1;fill-rule:nonzero;stroke:none"
       id="text1281"
       x="495.47989"
       y="-649.68011"><tspan
         x="495.47989"
         y="-649.68011"
         id="tspan1277">,</tspan><tspan
         x="243.00386 247.44603 251.88818 256.33032 260.77249 264.66687 268.50543"
         y="-637.67828"
         id="tspan1279">access </tspan></text><text
       transform="scale(1,-1)"
       style="font-variant:normal;font-weight:normal;font-stretch:normal;font-size:9px;font-family:'Courier New';-inkscape-font-specification:CourierNew;writing-mode:lr-tb;fill:#000000;fill-opacity:1;fill-rule:nonzero;stroke:none"
       id="text1285"
       x="271.01999"
       y="-637.68011"><tspan
         x="271.01999 276.4191 281.81821 287.21729 292.55609"
         y="-637.68011"
         id="tspan1283">obj_h</tspan></text><text
       transform="scale(1,-1)"
       style="font-variant:normal;font-weight:normal;font-stretch:normal;font-size:9.96px;font-family:'Times New Roman';-inkscape-font-specification:TimesNewRomanPSMT;writing-mode:lr-tb;fill:#000000;fill-opacity:1;fill-rule:nonzero;stroke:none"
       id="text1289"
       x="300.45895"
       y="-637.68011"><tspan
         x="300.45895 305.44794 308.77356 311.27252 314.09421 319.08316 324.07214 328.50333"
         y="-637.68011"
         id="tspan1287">of type </tspan></text><text
       transform="scale(1,-1)"
       style="font-style:italic;font-variant:normal;font-weight:normal;font-stretch:normal;font-size:9.96px;font-family:'Times New Roman';-inkscape-font-specification:'TimesNewRoman Italic';writing-mode:lr-tb;fill:#000000;fill-opacity:1;fill-rule:nonzero;stroke:none"
       id="text1293"
       x="331.01724"
       y="-637.68011"><tspan
         x="331.01724 338.21234 343.19632"
         y="-637.68011"
         id="tspan1291">Obj</tspan></text><text
       transform="scale(1,-1)"
       style="font-variant:normal;font-weight:normal;font-stretch:normal;font-size:9.96px;font-family:'Times New Roman';-inkscape-font-specification:TimesNewRomanPSMT;writing-mode:lr-tb;fill:#000000;fill-opacity:1;fill-rule:nonzero;stroke:none"
       id="text1297"
       x="346.017"
       y="-637.68011"><tspan
         x="346.017"
         y="-637.68011"
         id="tspan1295">:</tspan></text><text
       transform="scale(1,-1)"
       style="font-variant:normal;font-weight:normal;font-stretch:normal;font-size:9px;font-family:'Courier New';-inkscape-font-specification:CourierNew;writing-mode:lr-tb;fill:#000000;fill-opacity:1;fill-rule:nonzero;stroke:none"
       id="text1301"
       x="264.5361"
       y="-626.34003"><tspan
         x="264.5361 269.93521 275.33429 280.7334 286.13251 291.53159 296.93069 302.3298 307.66861 313.06769 318.4668 323.86591 329.26498 334.66409 340.0632 345.46231 350.80109 356.2002 361.5993"
         y="-626.34003"
         id="tspan1299">obj_h = vpi_handle(</tspan></text><text
       transform="scale(1,-1)"
       style="font-style:italic;font-variant:normal;font-weight:normal;font-stretch:normal;font-size:9px;font-family:'Courier New';-inkscape-font-specification:'CourierNew Italic';writing-mode:lr-tb;fill:#000000;fill-opacity:1;fill-rule:nonzero;stroke:none"
       id="text1305"
       x="367.01999"
       y="-626.34003"><tspan
         x="367.01999 372.4191 377.81821"
         y="-626.34003"
         id="tspan1303">Obj</tspan></text><text
       transform="scale(1,-1)"
       style="font-variant:normal;font-weight:normal;font-stretch:normal;font-size:9px;font-family:'Courier New';-inkscape-font-specification:CourierNew;writing-mode:lr-tb;fill:#000000;fill-opacity:1;fill-rule:nonzero;stroke:none"
       id="text1309"
       x="383.21729"
       y="-626.34003"><tspan
         x="383.21729 388.61639 393.9552 399.35431 404.75339 410.1525 415.55161 420.95068 426.34979"
         y="-626.34003"
         id="tspan1307">, ref_h);</tspan></text><path
       d="m 243,524.16 h 255 v 69.72 H 243 Z"
       style="fill:#ffffff;fill-opacity:1;fill-rule:nonzero;stroke:none"
       id="path1311" /><text
       transform="scale(1,-1)"
       style="font-variant:normal;font-weight:normal;font-stretch:normal;font-size:9.96px;font-family:'Times New Roman';-inkscape-font-specification:TimesNewRomanPSMT;writing-mode:lr-tb;fill:#000000;fill-opacity:1;fill-rule:nonzero;stroke:none"
       id="text1315"
       x="243"
       y="-587.21997"><tspan
         x="243 250.19611 254.15619 256.93005 261.35727 266.39703 271.37704 275.80426 280.78925 284.74933 289.72934 294.7691 299.15051 302.47217 305.24603 310.28577 313.58551 318.5705 323.61026 328.03748 331.93781 335.25949 339.68671 342.46057 346.88779 349.66162 352.48331 357.46826 362.45328 366.3327 371.31769 374.13934 379.12433 383.08441 385.85828 389.73767 393.69778 396.45972 399.78137 404.20856 409.19354 413.62079 416.94244 420.82184 425.24908 430.23407 434.19415 438.0925 440.86636 448.66803 451.44189 454.26355 458.69077 462.01245 464.78629 469.82605 472.32104 476.28113 481.26611 485.14551 487.91937 492.95917"
         y="-587.21997"
         id="tspan1313">A tagged one-to-one relationship is traversed similarly, using</tspan></text><text
       transform="scale(1,-1)"
       style="font-style:italic;font-variant:normal;font-weight:normal;font-stretch:normal;font-size:9.96px;font-family:'Times New Roman';-inkscape-font-specification:'TimesNewRoman Italic';writing-mode:lr-tb;fill:#000000;fill-opacity:1;fill-rule:nonzero;stroke:none"
       id="text1319"
       x="243"
       y="-575.2182"><tspan
         x="243 248.51883 253.55859"
         y="-575.2182"
         id="tspan1317">Tag</tspan></text><text
       transform="scale(1,-1)"
       style="font-variant:normal;font-weight:normal;font-stretch:normal;font-size:9.96px;font-family:'Times New Roman';-inkscape-font-specification:TimesNewRomanPSMT;writing-mode:lr-tb;fill:#000000;fill-opacity:1;fill-rule:nonzero;stroke:none"
       id="text1323"
       x="261.03857"
       y="-575.2182"><tspan
         x="261.03857 263.81839 268.80936 272.69476 275.47458 279.90778 284.34097 289.33194 291.83289 296.82385 300.15149"
         y="-575.2182"
         id="tspan1321">instead of </tspan></text><text
       transform="scale(1,-1)"
       style="font-style:italic;font-variant:normal;font-weight:normal;font-stretch:normal;font-size:9.96px;font-family:'Times New Roman';-inkscape-font-specification:'TimesNewRoman Italic';writing-mode:lr-tb;fill:#000000;fill-opacity:1;fill-rule:nonzero;stroke:none"
       id="text1327"
       x="302.70023"
       y="-575.2182"><tspan
         x="302.70023 309.89536 314.87933"
         y="-575.2182"
         id="tspan1325">Obj</tspan></text><text
       transform="scale(1,-1)"
       style="font-variant:normal;font-weight:normal;font-stretch:normal;font-size:9.96px;font-family:'Times New Roman';-inkscape-font-specification:TimesNewRomanPSMT;writing-mode:lr-tb;fill:#000000;fill-opacity:1;fill-rule:nonzero;stroke:none"
       id="text1333"
       x="317.70001"
       y="-575.2182"><tspan
         x="317.70001"
         y="-575.2182"
         id="tspan1329">.</tspan><tspan
         x="243 248.5527 253.54764 256.87927 259.38419 263.82138 268.81631 273.25351 281.01733 286.01227 288.79608 293.23325"
         y="-551.2146"
         id="tspan1331">For example:</tspan></text><text
       transform="scale(1,-1)"
       style="font-variant:normal;font-weight:normal;font-stretch:normal;font-size:9px;font-family:'Courier New';-inkscape-font-specification:CourierNew;writing-mode:lr-tb;fill:#000000;fill-opacity:1;fill-rule:nonzero;stroke:none"
       id="text1337"
       x="264.5361"
       y="-539.88"><tspan
         x="264.5361 269.93521 275.33429 280.7334 286.13251 291.53159 296.93069 302.3298 307.66861 313.06769 318.4668 323.86591 329.26498 334.66409 340.0632 345.46231 350.80109 356.2002 361.5993"
         y="-539.88"
         id="tspan1335">obj_h = vpi_handle(</tspan></text><text
       transform="scale(1,-1)"
       style="font-style:italic;font-variant:normal;font-weight:normal;font-stretch:normal;font-size:9px;font-family:'Courier New';-inkscape-font-specification:'CourierNew Italic';writing-mode:lr-tb;fill:#000000;fill-opacity:1;fill-rule:nonzero;stroke:none"
       id="text1341"
       x="367.01999"
       y="-539.88"><tspan
         x="367.01999 372.4191 377.81821"
         y="-539.88"
         id="tspan1339">Tag</tspan></text><text
       transform="scale(1,-1)"
       style="font-variant:normal;font-weight:normal;font-stretch:normal;font-size:9px;font-family:'Courier New';-inkscape-font-specification:CourierNew;writing-mode:lr-tb;fill:#000000;fill-opacity:1;fill-rule:nonzero;stroke:none"
       id="text1345"
       x="383.21729"
       y="-539.88"><tspan
         x="383.21729 388.61639 393.9552 399.35431 404.75339 410.1525 415.55161 420.95068 426.34979"
         y="-539.88"
         id="tspan1343">, ref_h);</tspan></text><path
       d="m 243,442.26 h 255 v 67.68 H 243 Z"
       style="fill:#ffffff;fill-opacity:1;fill-rule:nonzero;stroke:none"
       id="path1347" /><text
       transform="scale(1,-1)"
       style="font-variant:normal;font-weight:normal;font-stretch:normal;font-size:9.96px;font-family:'Times New Roman';-inkscape-font-specification:TimesNewRomanPSMT;writing-mode:lr-tb;fill:#000000;fill-opacity:1;fill-rule:nonzero;stroke:none"
       id="text1353"
       x="243"
       y="-503.28"><tspan
         x="243 250.20009 256.49979 261.48874 266.47772 270.90891 274.23456 277.01239 282.00137 285.32703 290.31598 295.30493 299.73615 306.03583 309.3356 313.76678 316.54465 320.97583 323.79752 326.57535 331.56433 336.60406 340.44266 345.48242 348.24432 353.23331 359.53299 362.31085 367.2998 371.73102 374.55267 380.7926 385.77261 389.09827 391.8761 396.91586 399.67776 404.66675 409.09796 411.87579 416.30701 420.1904 426.49011 429.81573 433.14136 438.13034 445.93201 452.17194 456.6131 462.85306 467.29422 470.11591 473.41565 477.84686 480.62469 485.05591 491.35559 494.13342"
         y="-503.28"
         id="tspan1349">A one-to-one relationship that originates from a circle is</tspan><tspan
         x="243 245.77785 249.10349 253.5347 258.52365 262.95486 266.28052 270.16391 274.59512 279.58408 282.08304 287.07199 290.95541 293.73325 298.77301 303.76196"
         y="-491.2782"
         id="tspan1351">traversed using </tspan></text><text
       transform="scale(1,-1)"
       style="font-variant:normal;font-weight:normal;font-stretch:normal;font-size:9px;font-family:'Courier New';-inkscape-font-specification:CourierNew;writing-mode:lr-tb;fill:#000000;fill-opacity:1;fill-rule:nonzero;stroke:none"
       id="text1357"
       x="306.29999"
       y="-491.28"><tspan
         x="306.29999 311.6991 317.0379 322.43701"
         y="-491.28"
         id="tspan1355">NULL</tspan></text><text
       transform="scale(1,-1)"
       style="font-variant:normal;font-weight:normal;font-stretch:normal;font-size:9.96px;font-family:'Times New Roman';-inkscape-font-specification:TimesNewRomanPSMT;writing-mode:lr-tb;fill:#000000;fill-opacity:1;fill-rule:nonzero;stroke:none"
       id="text1361"
       x="330.34195"
       y="-491.28"><tspan
         x="330.34195 333.67059 338.66254 341.99118 344.4931 347.27396 352.2659 356.7001"
         y="-491.28"
         id="tspan1359">for the </tspan></text><text
       transform="scale(1,-1)"
       style="font-variant:normal;font-weight:normal;font-stretch:normal;font-size:9px;font-family:'Courier New';-inkscape-font-specification:CourierNew;writing-mode:lr-tb;fill:#000000;fill-opacity:1;fill-rule:nonzero;stroke:none"
       id="text1365"
       x="359.22"
       y="-491.28"><tspan
         x="359.22 364.61911 370.01819 375.4173 380.7561"
         y="-491.28"
         id="tspan1363">ref_h</tspan></text><text
       transform="scale(1,-1)"
       style="font-variant:normal;font-weight:normal;font-stretch:normal;font-size:9.96px;font-family:'Times New Roman';-inkscape-font-specification:TimesNewRomanPSMT;writing-mode:lr-tb;fill:#000000;fill-opacity:1;fill-rule:nonzero;stroke:none"
       id="text1371"
       x="386.16"
       y="-491.28"><tspan
         x="386.16"
         y="-491.28"
         id="tspan1367">.</tspan><tspan
         x="242.99496 248.54767 253.5426 256.87421 259.37915 263.81635 268.81128 273.24847 281.01227 286.00723 288.79105 293.22821"
         y="-467.2764"
         id="tspan1369">For example:</tspan></text><text
       transform="scale(1,-1)"
       style="font-variant:normal;font-weight:normal;font-stretch:normal;font-size:9px;font-family:'Courier New';-inkscape-font-specification:CourierNew;writing-mode:lr-tb;fill:#000000;fill-opacity:1;fill-rule:nonzero;stroke:none"
       id="text1375"
       x="264.5361"
       y="-455.94"><tspan
         x="264.5361 269.93521 275.33429 280.7334 286.13251 291.53159 296.93069 302.3298 307.66861 313.06769 318.4668 323.86591 329.26498 334.66409 340.0632 345.46231 350.80109 356.2002 361.5993"
         y="-455.94"
         id="tspan1373">obj_h = vpi_handle(</tspan></text><text
       transform="scale(1,-1)"
       style="font-style:italic;font-variant:normal;font-weight:normal;font-stretch:normal;font-size:9px;font-family:'Courier New';-inkscape-font-specification:'CourierNew Italic';writing-mode:lr-tb;fill:#000000;fill-opacity:1;fill-rule:nonzero;stroke:none"
       id="text1379"
       x="367.01999"
       y="-455.94"><tspan
         x="367.01999 372.4191 377.81821"
         y="-455.94"
         id="tspan1377">Obj</tspan></text><text
       transform="scale(1,-1)"
       style="font-variant:normal;font-weight:normal;font-stretch:normal;font-size:9px;font-family:'Courier New';-inkscape-font-specification:CourierNew;writing-mode:lr-tb;fill:#000000;fill-opacity:1;fill-rule:nonzero;stroke:none"
       id="text1383"
       x="383.21729"
       y="-455.94"><tspan
         x="383.21729 388.61639 393.9552 399.35431 404.75339 410.1525 415.55161 420.95068"
         y="-455.94"
         id="tspan1381">, NULL);</tspan></text><path
       d="m 243,330.12 h 255 v 99 H 243 Z"
       style="fill:#ffffff;fill-opacity:1;fill-rule:nonzero;stroke:none"
       id="path1385" /><text
       transform="scale(1,-1)"
       style="font-variant:normal;font-weight:normal;font-stretch:normal;font-size:9.96px;font-family:'Times New Roman';-inkscape-font-specification:TimesNewRomanPSMT;writing-mode:lr-tb;fill:#000000;fill-opacity:1;fill-rule:nonzero;stroke:none"
       id="text1391"
       x="243"
       y="-422.45999"><tspan
         x="243 250.20706 253.62732 258.62326 263.6192 268.61511 273.61105 276.39587 280.83405 284.25433 288.6925 292.02512 295.35773 300.35367 307.56073 310.98099 313.74289 318.73883 323.73477 326.51959 330.95776 335.39594 338.18076 342.61893 346.50931 349.98932 354.42749 357.84778 362.84369 367.83963 372.30072 375.63733 378.42612 383.42603 386.76263 394.53143 398.91284 403.91278 408.91269 412.33295 415.69244 420.13461 422.9234 427.36557 430.15436 432.94318 437.94312 442.94299 446.83737 451.83728 454.6261 459.62604 463.04626 467.48843 471.9306 476.37274 480.81494 484.70929 488.60364 493.04581"
         y="-422.45999"
         id="tspan1387">A double arrow indicates a one-to-many relationship accessed</tspan><tspan
         x="243 250.19611 252.96996 255.79163 260.77164 263.2666 266.04047 271.02545 275.45267 277.94763 281.26932 286.30908 291.28906 294.06293 296.88458 301.86957 306.29678"
         y="-410.45819"
         id="tspan1389">with the routine </tspan></text><text
       transform="scale(1,-1)"
       style="font-variant:normal;font-weight:bold;font-stretch:normal;font-size:9.96px;font-family:'Times New Roman';-inkscape-font-specification:TimesNewRomanPS-BoldMT;writing-mode:lr-tb;fill:#000000;fill-opacity:1;fill-rule:nonzero;stroke:none"
       id="text1395"
       x="308.81567"
       y="-410.45819"><tspan
         x="308.81567 313.84048 319.35934 322.17303 327.15305 331.0723 335.53937 340.51935 346.10193 349.40167"
         y="-410.45819"
         id="tspan1393">vpi_scan()</tspan></text><text
       transform="scale(1,-1)"
       style="font-variant:normal;font-weight:normal;font-stretch:normal;font-size:9.96px;font-family:'Times New Roman';-inkscape-font-specification:TimesNewRomanPSMT;writing-mode:lr-tb;fill:#000000;fill-opacity:1;fill-rule:nonzero;stroke:none"
       id="text1401"
       x="352.67953"
       y="-410.45819"><tspan
         x="352.67953"
         y="-410.45819"
         id="tspan1397">.</tspan><tspan
         x="243 248.54871 253.53967 256.86731 260.88718 265.32037 270.31131 274.74451 282.50436 287.4953 290.27515 294.70834 297.48816 301.50803 308.76587 311.54572 316.53668 320.96988 325.96082"
         y="-386.45459"
         id="tspan1399">For example: Given </tspan></text><text
       transform="scale(1,-1)"
       style="font-variant:normal;font-weight:bold;font-stretch:normal;font-size:9.96px;font-family:'Times New Roman';-inkscape-font-specification:TimesNewRomanPS-BoldMT;writing-mode:lr-tb;fill:#000000;fill-opacity:1;fill-rule:nonzero;stroke:none"
       id="text1405"
       x="330.06036"
       y="-386.45459"><tspan
         x="330.06036 335.04333 340.58411 343.35596 351.10782 356.14758 361.68835 367.2291 370.00095"
         y="-386.45459"
         id="tspan1403">vpiHandle</tspan></text><text
       transform="scale(1,-1)"
       style="font-variant:normal;font-weight:normal;font-stretch:normal;font-size:9.96px;font-family:'Times New Roman';-inkscape-font-specification:TimesNewRomanPSMT;writing-mode:lr-tb;fill:#000000;fill-opacity:1;fill-rule:nonzero;stroke:none"
       id="text1409"
       x="378.4819"
       y="-386.45459"><tspan
         x="378.4819 383.52167 387.95685 391.28647 394.0683 398.50348 403.49643 406.27826 410.71347"
         y="-386.45459"
         id="tspan1407">variable </tspan></text><text
       transform="scale(1,-1)"
       style="font-variant:normal;font-weight:normal;font-stretch:normal;font-size:9px;font-family:'Courier New';-inkscape-font-specification:CourierNew;writing-mode:lr-tb;fill:#000000;fill-opacity:1;fill-rule:nonzero;stroke:none"
       id="text1413"
       x="414.72"
       y="-386.45999"><tspan
         x="414.72 420.11911 425.51819 430.9173 436.31641"
         y="-386.45999"
         id="tspan1411">ref_h</tspan></text><text
       transform="scale(1,-1)"
       style="font-variant:normal;font-weight:normal;font-stretch:normal;font-size:9.96px;font-family:'Times New Roman';-inkscape-font-specification:TimesNewRomanPSMT;writing-mode:lr-tb;fill:#000000;fill-opacity:1;fill-rule:nonzero;stroke:none"
       id="text1417"
       x="445.73987"
       y="-386.45999"><tspan
         x="445.73987 450.71985 454.07938 458.09921 460.86115 465.84113 470.88089 475.32205"
         y="-386.45999"
         id="tspan1415">of type </tspan></text><text
       transform="scale(1,-1)"
       style="font-variant:normal;font-weight:normal;font-stretch:normal;font-size:9px;font-family:'Courier New';-inkscape-font-specification:CourierNew;writing-mode:lr-tb;fill:#000000;fill-opacity:1;fill-rule:nonzero;stroke:none"
       id="text1421"
       x="479.34"
       y="-386.45999"><tspan
         x="479.34 484.73911 490.13821"
         y="-386.45999"
         id="tspan1419">ref</tspan></text><text
       transform="scale(1,-1)"
       style="font-variant:normal;font-weight:normal;font-stretch:normal;font-size:9.96px;font-family:'Times New Roman';-inkscape-font-specification:TimesNewRomanPSMT;writing-mode:lr-tb;fill:#000000;fill-opacity:1;fill-rule:nonzero;stroke:none"
       id="text1427"
       x="495.47989"
       y="-386.45999"><tspan
         x="495.47989"
         y="-386.45999"
         id="tspan1423">,</tspan><tspan
         x="243.00386 246.88927 251.32245 255.75565 260.74661 263.24756 268.23853 273.22946 276.00931 280.4425 284.8757 287.69736 291.58276 294.08371 299.07468 302.40231 304.90326 307.68311 312.67404 317.66501 322.09821"
         y="-374.45819"
         id="tspan1425">scan objects of type </tspan></text><text
       transform="scale(1,-1)"
       style="font-style:italic;font-variant:normal;font-weight:normal;font-stretch:normal;font-size:9.96px;font-family:'Times New Roman';-inkscape-font-specification:'TimesNewRoman Italic';writing-mode:lr-tb;fill:#000000;fill-opacity:1;fill-rule:nonzero;stroke:none"
       id="text1431"
       x="324.59918"
       y="-374.45819"><tspan
         x="324.59918 331.79727 336.83704"
         y="-374.45819"
         id="tspan1429">Obj</tspan></text><text
       transform="scale(1,-1)"
       style="font-variant:normal;font-weight:normal;font-stretch:normal;font-size:9.96px;font-family:'Times New Roman';-inkscape-font-specification:TimesNewRomanPSMT;writing-mode:lr-tb;fill:#000000;fill-opacity:1;fill-rule:nonzero;stroke:none"
       id="text1435"
       x="339.6059"
       y="-374.45819"><tspan
         x="339.6059"
         y="-374.45819"
         id="tspan1433">:</tspan></text><text
       transform="scale(1,-1)"
       style="font-variant:normal;font-weight:normal;font-stretch:normal;font-size:9px;font-family:'Courier New';-inkscape-font-specification:CourierNew;writing-mode:lr-tb;fill:#000000;fill-opacity:1;fill-rule:nonzero;stroke:none"
       id="text1439"
       x="264.5361"
       y="-363.12"><tspan
         x="264.5361 269.93521 275.33429 280.7334 286.13251 291.53159 296.93069 302.3298 307.66861 313.06769 318.4668 323.86591 329.26498 334.66409 340.0632 345.46231 350.80109 356.2002"
         y="-363.12"
         id="tspan1437">itr = vpi_iterate(</tspan></text><text
       transform="scale(1,-1)"
       style="font-style:italic;font-variant:normal;font-weight:normal;font-stretch:normal;font-size:9px;font-family:'Courier New';-inkscape-font-specification:'CourierNew Italic';writing-mode:lr-tb;fill:#000000;fill-opacity:1;fill-rule:nonzero;stroke:none"
       id="text1443"
       x="361.62"
       y="-363.12"><tspan
         x="361.62 367.0191 372.41821"
         y="-363.12"
         id="tspan1441">Obj</tspan></text><text
       transform="scale(1,-1)"
       style="font-variant:normal;font-weight:normal;font-stretch:normal;font-size:9px;font-family:'Courier New';-inkscape-font-specification:CourierNew;writing-mode:lr-tb;fill:#000000;fill-opacity:1;fill-rule:nonzero;stroke:none"
       id="text1451"
       x="377.81729"
       y="-363.12"><tspan
         x="377.81729 383.2164 388.61551 393.95428 399.35339 404.7525 410.15161 415.55069 420.9498"
         y="-363.12"
         id="tspan1445">, ref_h);</tspan><tspan
         x="243 264.5361 269.93521 275.33429 280.7334 286.13251 291.53162 296.93069 302.3298 307.66861 313.06769 318.4668 323.86591 329.26501 334.66409 340.0632 345.46231 350.80109 356.2002 361.5993 366.99841 372.39749 377.7966 383.19571 388.59479 393.93359 399.3327 404.73181 410.13089 415.53 420.92911"
         y="-353.15701"
         id="tspan1447"> while (obj_h = vpi_scan(itr) )</tspan><tspan
         x="243 275.33429 280.7334 286.13251 291.53162 296.93069 302.3298 307.66861 313.06769 318.4668 323.86591 329.26501 334.66409 340.0632 345.46231 350.80109 356.2002 361.5993 366.99841 372.39749 377.7966 383.19571"
         y="-343.14001"
         id="tspan1449"> /* process 'obj_h' */</tspan></text><path
       d="m 243,227.16 h 255 v 87.72 H 243 Z"
       style="fill:#ffffff;fill-opacity:1;fill-rule:nonzero;stroke:none"
       id="path1453" /><text
       transform="scale(1,-1)"
       style="font-variant:normal;font-weight:normal;font-stretch:normal;font-size:9.96px;font-family:'Times New Roman';-inkscape-font-specification:TimesNewRomanPSMT;writing-mode:lr-tb;fill:#000000;fill-opacity:1;fill-rule:nonzero;stroke:none"
       id="text1457"
       x="243"
       y="-308.22"><tspan
         x="243 250.1971 253.01677 255.83844 260.2796 265.26556 270.25156 274.67978 279.71954 282.53922 287.52518 292.51117 296.93939 300.26202 303.0369 308.07666 311.3764 319.17807 323.61923 328.60519 333.59119 336.41086 339.73352 344.16174 346.93658 351.36481 354.13965 356.96133 361.9473 366.93329 370.81369 375.79968 378.62134 383.6073 386.427 389.24866 393.147 395.96667 398.72858 402.05124 406.47946 411.46545 415.89365 419.21631 423.09674 427.52493 432.51093 435.39136 439.28967 442.06454 449.8194 452.64105 455.41592 459.84415 463.16681 465.98846 470.97443 473.4704 476.2901 481.27008 485.15051 487.92535 492.96512"
         y="-308.22"
         id="tspan1455">A tagged one-to-many relationship is traversed similarly, using</tspan></text><text
       transform="scale(1,-1)"
       style="font-style:italic;font-variant:normal;font-weight:normal;font-stretch:normal;font-size:9.96px;font-family:'Times New Roman';-inkscape-font-specification:'TimesNewRoman Italic';writing-mode:lr-tb;fill:#000000;fill-opacity:1;fill-rule:nonzero;stroke:none"
       id="text1461"
       x="243"
       y="-296.2182"><tspan
         x="243 248.51883 253.55859"
         y="-296.2182"
         id="tspan1459">Tag</tspan></text><text
       transform="scale(1,-1)"
       style="font-variant:normal;font-weight:normal;font-stretch:normal;font-size:9.96px;font-family:'Times New Roman';-inkscape-font-specification:TimesNewRomanPSMT;writing-mode:lr-tb;fill:#000000;fill-opacity:1;fill-rule:nonzero;stroke:none"
       id="text1465"
       x="261.03857"
       y="-296.2182"><tspan
         x="261.03857 263.81839 268.80936 272.69476 275.47458 279.90778 284.34097 289.33194 291.83289 296.82385 300.15149"
         y="-296.2182"
         id="tspan1463">instead of </tspan></text><text
       transform="scale(1,-1)"
       style="font-style:italic;font-variant:normal;font-weight:normal;font-stretch:normal;font-size:9.96px;font-family:'Times New Roman';-inkscape-font-specification:'TimesNewRoman Italic';writing-mode:lr-tb;fill:#000000;fill-opacity:1;fill-rule:nonzero;stroke:none"
       id="text1469"
       x="302.70023"
       y="-296.2182"><tspan
         x="302.70023 309.89536 314.87933"
         y="-296.2182"
         id="tspan1467">Obj</tspan></text><text
       transform="scale(1,-1)"
       style="font-variant:normal;font-weight:normal;font-stretch:normal;font-size:9.96px;font-family:'Times New Roman';-inkscape-font-specification:TimesNewRomanPSMT;writing-mode:lr-tb;fill:#000000;fill-opacity:1;fill-rule:nonzero;stroke:none"
       id="text1475"
       x="317.70001"
       y="-296.2182"><tspan
         x="317.70001"
         y="-296.2182"
         id="tspan1471">.</tspan><tspan
         x="243 248.5527 253.54764 256.87927 259.38419 263.82138 268.81631 273.25351 281.01733 286.01227 288.79608 293.23325"
         y="-272.2146"
         id="tspan1473">For example:</tspan></text><text
       transform="scale(1,-1)"
       style="font-variant:normal;font-weight:normal;font-stretch:normal;font-size:9px;font-family:'Courier New';-inkscape-font-specification:CourierNew;writing-mode:lr-tb;fill:#000000;fill-opacity:1;fill-rule:nonzero;stroke:none"
       id="text1479"
       x="264.5361"
       y="-260.8801"><tspan
         x="264.5361 269.93521 275.33429 280.7334 286.13251 291.53159 296.93069 302.3298 307.66861 313.06769 318.4668 323.86591 329.26498 334.66409 340.0632 345.46231 350.80109 356.2002"
         y="-260.8801"
         id="tspan1477">itr = vpi_iterate(</tspan></text><text
       transform="scale(1,-1)"
       style="font-style:italic;font-variant:normal;font-weight:normal;font-stretch:normal;font-size:9px;font-family:'Courier New';-inkscape-font-specification:'CourierNew Italic';writing-mode:lr-tb;fill:#000000;fill-opacity:1;fill-rule:nonzero;stroke:none"
       id="text1483"
       x="361.62"
       y="-260.8801"><tspan
         x="361.62 367.0191 372.41821"
         y="-260.8801"
         id="tspan1481">Tag</tspan></text><text
       transform="scale(1,-1)"
       style="font-variant:normal;font-weight:normal;font-stretch:normal;font-size:9px;font-family:'Courier New';-inkscape-font-specification:CourierNew;writing-mode:lr-tb;fill:#000000;fill-opacity:1;fill-rule:nonzero;stroke:none"
       id="text1491"
       x="377.81729"
       y="-260.8801"><tspan
         x="377.81729 383.2164 388.61551 393.95428 399.35339 404.7525 410.15161 415.55069 420.9498"
         y="-260.8801"
         id="tspan1485">, ref_h);</tspan><tspan
         x="243 264.5361 269.93521 275.33429 280.7334 286.13251 291.53162 296.93069 302.3298 307.66861 313.06769 318.4668 323.86591 329.26501 334.66409 340.0632 345.46231 350.80109 356.2002 361.5993 366.99841 372.39749 377.7966 383.19571 388.59479 393.93359 399.3327 404.73181 410.13089 415.53 420.92911"
         y="-250.8631"
         id="tspan1487"> while (obj_h = vpi_scan(itr) )</tspan><tspan
         x="243 275.33429 280.7334 286.13251 291.53162 296.93069 302.3298 307.66861 313.06769 318.4668 323.86591 329.26501 334.66409 340.0632 345.46231 350.80109 356.2002 361.5993 366.99841 372.39749 377.7966 383.19571"
         y="-240.9001"
         id="tspan1489"> /* process 'obj_h' */</tspan></text><text
       transform="scale(1,-1)"
       style="font-variant:normal;font-weight:normal;font-stretch:normal;font-size:9.96px;font-family:'Times New Roman';-inkscape-font-specification:TimesNewRomanPSMT;writing-mode:lr-tb;fill:#000000;fill-opacity:1;fill-rule:nonzero;stroke:none"
       id="text1497"
       x="243"
       y="-206.7001"><tspan
         x="243 250.19611 255.53566 260.57541 265.55542 269.98264 273.30429 276.12598 281.10596 284.42761 292.18149 296.6087 301.59369 306.63345 311.91324 315.23489 319.66211 322.4838 326.92496 329.69882 332.47266 337.51242 342.49741 346.37683 351.36182 354.13568 359.17542 364.45523 367.2291 372.21405 376.6413 379.46295 384.74274 389.72275 393.04443 395.81827 400.80325 403.62494 408.60989 413.03711 415.81097 420.23822 424.11761 429.3974 432.71906 436.04074 441.08051 448.82239 454.1022 458.54337 463.88293 468.3241 471.09796 474.41962 478.8468 481.66849 486.0957 491.37549 494.14935"
         y="-206.7001"
         id="tspan1493">A one-to-many relationship that originates from a circle is</tspan><tspan
         x="243 245.77785 249.10349 253.5347 258.52365 262.95486 266.28052 270.16391 274.59512 279.58408 282.08304 287.07199 290.95541 293.73325 298.77301 303.76196"
         y="-194.6983"
         id="tspan1495">traversed using </tspan></text><text
       transform="scale(1,-1)"
       style="font-variant:normal;font-weight:normal;font-stretch:normal;font-size:9px;font-family:'Courier New';-inkscape-font-specification:CourierNew;writing-mode:lr-tb;fill:#000000;fill-opacity:1;fill-rule:nonzero;stroke:none"
       id="text1501"
       x="306.29999"
       y="-194.7001"><tspan
         x="306.29999 311.6991 317.0379 322.43701"
         y="-194.7001"
         id="tspan1499">NULL</tspan></text><text
       transform="scale(1,-1)"
       style="font-variant:normal;font-weight:normal;font-stretch:normal;font-size:9.96px;font-family:'Times New Roman';-inkscape-font-specification:TimesNewRomanPSMT;writing-mode:lr-tb;fill:#000000;fill-opacity:1;fill-rule:nonzero;stroke:none"
       id="text1505"
       x="330.34195"
       y="-194.7001"><tspan
         x="330.34195 333.67059 338.66254 341.99118 344.4931 347.27396 352.2659 356.7001"
         y="-194.7001"
         id="tspan1503">for the </tspan></text><text
       transform="scale(1,-1)"
       style="font-variant:normal;font-weight:normal;font-stretch:normal;font-size:9px;font-family:'Courier New';-inkscape-font-specification:CourierNew;writing-mode:lr-tb;fill:#000000;fill-opacity:1;fill-rule:nonzero;stroke:none"
       id="text1509"
       x="359.22"
       y="-194.7001"><tspan
         x="359.22 364.61911 370.01819 375.4173 380.7561"
         y="-194.7001"
         id="tspan1507">ref_h</tspan></text><text
       transform="scale(1,-1)"
       style="font-variant:normal;font-weight:normal;font-stretch:normal;font-size:9.96px;font-family:'Times New Roman';-inkscape-font-specification:TimesNewRomanPSMT;writing-mode:lr-tb;fill:#000000;fill-opacity:1;fill-rule:nonzero;stroke:none"
       id="text1515"
       x="386.16"
       y="-194.7001"><tspan
         x="386.16"
         y="-194.7001"
         id="tspan1511">.</tspan><tspan
         x="242.99496 248.54767 253.5426 256.87421 259.37915 263.81635 268.81128 273.24847 281.01227 286.00723 288.79105 293.22821"
         y="-170.6965"
         id="tspan1513">For example:</tspan></text><text
       transform="scale(1,-1)"
       style="font-variant:normal;font-weight:normal;font-stretch:normal;font-size:9px;font-family:'Courier New';-inkscape-font-specification:CourierNew;writing-mode:lr-tb;fill:#000000;fill-opacity:1;fill-rule:nonzero;stroke:none"
       id="text1519"
       x="264.5361"
       y="-159.36"><tspan
         x="264.5361 269.93521 275.33429 280.7334 286.13251 291.53159 296.93069 302.3298 307.66861 313.06769 318.4668 323.86591 329.26498 334.66409 340.0632 345.46231 350.80109 356.2002"
         y="-159.36"
         id="tspan1517">itr = vpi_iterate(</tspan></text><text
       transform="scale(1,-1)"
       style="font-style:italic;font-variant:normal;font-weight:normal;font-stretch:normal;font-size:9px;font-family:'Courier New';-inkscape-font-specification:'CourierNew Italic';writing-mode:lr-tb;fill:#000000;fill-opacity:1;fill-rule:nonzero;stroke:none"
       id="text1523"
       x="361.62"
       y="-159.36"><tspan
         x="361.62 367.0191 372.41821"
         y="-159.36"
         id="tspan1521">Obj</tspan></text><text
       transform="scale(1,-1)"
       style="font-variant:normal;font-weight:normal;font-stretch:normal;font-size:9px;font-family:'Courier New';-inkscape-font-specification:CourierNew;writing-mode:lr-tb;fill:#000000;fill-opacity:1;fill-rule:nonzero;stroke:none"
       id="text1531"
       x="377.81729"
       y="-159.36"><tspan
         x="377.81729 383.2164 388.61551 393.95428 399.35339 404.7525 410.15161 415.55069"
         y="-159.36"
         id="tspan1525">, NULL);</tspan><tspan
         x="243 264.5361 269.93521 275.33429 280.7334 286.13251 291.53162 296.93069 302.3298 307.66861 313.06769 318.4668 323.86591 329.26501 334.66409 340.0632 345.46231 350.80109 356.2002 361.5993 366.99841 372.39749 377.7966 383.19571 388.59479 393.93359 399.3327 404.73181 410.13089 415.53 420.92911"
         y="-149.343"
         id="tspan1527"> while (obj_h = vpi_scan(itr) )</tspan><tspan
         x="243 275.33429 280.7334 286.13251 291.53162 296.93069 302.3298 307.66861 313.06769 318.4668 323.86591 329.26501 334.66409 340.0632 345.46231 350.80109 356.2002 361.5993 366.99841 372.39749 377.7966 383.19571"
         y="-139.38"
         id="tspan1529"> /* process 'obj_h' */</tspan></text></g></svg>
