<?xml version="1.0" encoding="UTF-8" standalone="no"?>
<svg
   xmlns:dc="http://purl.org/dc/elements/1.1/"
   xmlns:cc="http://creativecommons.org/ns#"
   xmlns:rdf="http://www.w3.org/1999/02/22-rdf-syntax-ns#"
   xmlns:svg="http://www.w3.org/2000/svg"
   xmlns="http://www.w3.org/2000/svg"
   version="1.1"
   id="svg889"
   xml:space="preserve"
   width="570.79999"
   height="361.35999"
   viewBox="0 0 570.79999 361.35998"><metadata
     id="metadata895"><rdf:RDF><cc:Work
         rdf:about=""><dc:format>image/svg+xml</dc:format><dc:type
           rdf:resource="http://purl.org/dc/dcmitype/StillImage" /><dc:title></dc:title></cc:Work></rdf:RDF></metadata><defs
     id="defs893"><clipPath
       clipPathUnits="userSpaceOnUse"
       id="clipPath935"><path
         d="M 86.76,710.04 H 525.24 V 381.48 H 86.76 Z"
         clip-rule="evenodd"
         id="path933" /></clipPath><clipPath
       clipPathUnits="userSpaceOnUse"
       id="clipPath943"><path
         d="M 90,720 H 522 V 72 H 90 Z"
         clip-rule="evenodd"
         id="path941" /></clipPath><clipPath
       clipPathUnits="userSpaceOnUse"
       id="clipPath951"><path
         d="M 0,792.03 H 612 V 0.03 H 0 Z"
         id="path949" /></clipPath><clipPath
       clipPathUnits="userSpaceOnUse"
       id="clipPath1817"><path
         d="M 74.76,357.48 H 537.24 V 75 H 74.76 Z"
         clip-rule="evenodd"
         id="path1815" /></clipPath><clipPath
       clipPathUnits="userSpaceOnUse"
       id="clipPath1825"><path
         d="M 90,720 H 522 V 72 H 90 Z"
         clip-rule="evenodd"
         id="path1823" /></clipPath><clipPath
       clipPathUnits="userSpaceOnUse"
       id="clipPath1833"><path
         d="M 0,792.03 H 612 V 0.03 H 0 Z"
         id="path1831" /></clipPath></defs><g
     id="g897"
     transform="matrix(1.3333333,0,0,-1.3333333,-122.16,465.83999)"><text
       transform="scale(1,-1)"
       style="font-variant:normal;font-weight:normal;font-stretch:normal;font-size:13.98px;font-family:Arial;-inkscape-font-specification:ArialMT;writing-mode:lr-tb;fill:#000000;fill-opacity:1;fill-rule:nonzero;stroke:none"
       id="text1839"
       x="152.7"
       y="-329.64001"><tspan
         x="152.7 160.49664 168.29329"
         y="-329.64001"
         id="tspan1837">obj</tspan></text><g
       id="g1841"
       transform="translate(128.39999,341.57999)"><path
         d="m 0,0 -0.9,-0.06 -0.84,-0.12 0.06,0.06 -0.78,-0.24 h 0.06 l -1.56,-0.6 H -3.9 L -5.22,-1.92 -5.16,-1.86 -5.76,-2.4 -6.3,-3 -6.24,-2.94 -6.72,-3.6 -7.14,-4.26 V -4.2 L -7.5,-4.98 -7.8,-5.76 v 0.06 l -0.24,-0.78 0.06,0.06 -0.12,-0.84 v 0.06 -1.74 0.06 l 0.12,-0.84 -0.06,0.06 0.24,-0.84 0.3,-0.78 v 0.06 l 0.36,-0.72 0.42,-0.72 v 0.06 l 0.48,-0.66 H -6.3 l 0.54,-0.6 v 0.06 l 0.6,-0.54 h -0.06 l 0.66,-0.48 0.66,-0.42 -0.06,0.06 0.78,-0.36 0.78,-0.3 h -0.06 l 0.78,-0.18 H -1.74 L -0.9,-16.14 0,-16.2 H -0.06 66.3 l 0.9,0.06 h -0.06 l 0.84,0.12 0.78,0.18 H 68.7 l 0.78,0.3 h -0.06 l 0.72,0.36 v -0.06 l 0.42,-0.66 H 70.5 l -0.72,-0.36 -0.78,-0.3 -0.06,-0.06 -0.78,-0.18 H 68.1 l -0.84,-0.12 -0.9,-0.06 H -0.06 l -0.9,0.06 c -1.401,0.086 -2.854,0.684 -4.02,1.44 H -5.04 L -5.7,-15 v 0.06 c -6.02,5.023 -3.121,14.794 4.74,15.66 l 0.9,0.06"
         style="fill:#000000;fill-opacity:1;fill-rule:nonzero;stroke:none"
         id="path1843" /></g><g
       id="g1845"
       transform="translate(198.53999,326.34)"><path
         d="M 0,0 0.72,0.42 H 0.66 L 1.32,0.9 1.92,1.44 1.86,1.38 2.4,1.98 2.88,2.64 V 2.58 L 3.3,3.3 H 3.24 L 3.6,4.02 V 3.96 L 3.9,4.74 4.14,5.58 V 5.52 L 4.26,6.36 V 6.3 8.04 7.98 L 4.14,8.82 V 8.76 L 3.9,9.54 V 9.48 L 3.6,10.26 3.24,11.04 3.3,10.98 2.88,11.64 2.4,12.3 v -0.06 l -0.54,0.6 h 0.06 l -0.6,0.54 V 13.32 L 0.66,13.8 H 0.72 L 0,14.28 h 0.06 l -0.72,0.3 -0.78,0.3 -0.78,0.24 0.06,-0.06 -0.84,0.12 h 0.06 l -0.9,0.06 h -66.36 0.06 l -0.06,0.78 h 66.42 l 0.9,-0.06 0.84,-0.12 h 0.06 L -1.2,15.6 h 0.06 L -0.36,15.3 0.36,15 0.42,14.94 1.14,14.46 1.8,13.98 h 0.06 l 0.6,-0.54 V 13.38 L 3,12.78 H 3.06 L 3.54,12.12 V 12.06 C 4.73,10.106 5.22,8.52 5.04,6.24 L 4.92,5.4 4.86,5.34 C 4.402,3.377 3.397,1.514 1.8,0.24 L 1.14,-0.24 0.42,-0.66"
         style="fill:#000000;fill-opacity:1;fill-rule:nonzero;stroke:none"
         id="path1847" /></g><text
       transform="scale(1,-1)"
       style="font-variant:normal;font-weight:normal;font-stretch:normal;font-size:13.98px;font-family:Arial;-inkscape-font-specification:ArialMT;writing-mode:lr-tb;fill:#000000;fill-opacity:1;fill-rule:nonzero;stroke:none"
       id="text1851"
       x="152.7"
       y="-221.4601"><tspan
         x="152.7 160.49664 168.29329"
         y="-221.4601"
         id="tspan1849">obj</tspan></text><g
       id="g1853"
       transform="translate(128.34,233.34)"><path
         d="m 0,0 h -0.9 0.12 L -1.62,-0.18 -2.4,-0.36 -2.34,-0.3 -3.12,-0.6 -3.9,-0.96 h 0.06 l -0.66,-0.42 -0.66,-0.48 0.06,0.06 -0.6,-0.54 -0.54,-0.6 0.06,0.06 -0.48,-0.66 -0.42,-0.72 v 0.06 l -0.36,-0.72 -0.3,-0.78 v 0.06 l -0.24,-0.84 0.06,0.06 -0.12,-0.84 v 0.06 -1.68 0.06 l 0.12,-0.84 -0.06,0.06 0.24,-0.84 0.3,-0.78 v 0.06 l 0.36,-0.72 0.42,-0.72 v 0.06 l 0.48,-0.66 h -0.06 l 0.54,-0.6 v 0.06 l 0.6,-0.54 h -0.06 l 0.66,-0.48 0.66,-0.42 -0.06,0.06 0.78,-0.36 0.78,-0.3 H -2.4 l 0.78,-0.18 0.84,-0.18 H -0.9 67.26 67.2 l 0.84,0.18 0.78,0.18 h -0.06 l 0.78,0.3 h -0.06 l 0.72,0.36 v -0.06 l 0.42,-0.66 h -0.06 l -0.72,-0.36 -0.78,-0.3 -0.06,-0.06 -0.78,-0.18 -0.84,-0.18 H -0.9 c -1.423,0.209 -2.82,0.706 -4.02,1.5 h -0.06 l -0.66,0.48 v 0.06 l -0.6,0.54 H -6.3 l -0.54,0.6 v 0.06 l -0.48,0.66 -0.42,0.72 -0.06,0.06 -0.36,0.72 -0.3,0.78 v 0.06 l -0.24,0.84 v 0.06 c -0.274,1.671 -0.211,3.609 0.54,5.16 v 0.06 l 0.36,0.72 h 0.06 l 0.42,0.72 v 0.06 c 0.589,0.91 1.43,1.751 2.34,2.34 h 0.06 l 0.66,0.42 0.06,0.06 0.78,0.36 0.78,0.3 h 0.06 L -1.8,0.6 -0.96,0.78 H 0"
         style="fill:#000000;fill-opacity:1;fill-rule:nonzero;stroke:none"
         id="path1855" /></g><g
       id="g1857"
       transform="translate(198.53999,218.16)"><path
         d="M 0,0 0.72,0.42 H 0.66 L 1.32,0.9 1.92,1.44 1.86,1.38 2.4,1.98 2.88,2.64 V 2.58 L 3.3,3.3 H 3.24 L 3.6,4.02 V 3.96 L 3.9,4.74 4.14,5.58 V 5.52 L 4.26,6.36 V 6.3 7.98 7.92 L 4.14,8.76 V 8.7 L 3.9,9.54 V 9.48 L 3.6,10.26 3.24,10.98 3.3,10.92 2.88,11.64 2.4,12.3 v -0.06 l -0.54,0.6 h 0.06 l -0.6,0.54 V 13.32 L 0.66,13.8 H 0.72 L 0,14.22 -0.72,14.58 h 0.06 l -0.78,0.3 0.06,-0.06 L -2.16,15 -3,15.18 h 0.06 -67.26 v 0.78 h 66.36 c 0.962,0.148 1.791,-0.214 2.7,-0.36 l 0.78,-0.3 0.72,-0.36 0.06,-0.06 0.72,-0.42 0.66,-0.48 h 0.06 l 0.6,-0.54 V 13.38 L 3,12.78 H 3.06 L 3.54,12.12 V 12.06 C 4.725,10.071 5.205,8.558 5.04,6.24 L 4.92,5.4 4.86,5.34 C 4.402,3.377 3.397,1.514 1.8,0.24 L 1.14,-0.24 0.42,-0.66"
         style="fill:#000000;fill-opacity:1;fill-rule:nonzero;stroke:none"
         id="path1859" /></g><path
       d="m 92.22,349.14 h 427.5 v 0.24 H 92.22 Z"
       style="fill:#808080;fill-opacity:1;fill-rule:nonzero;stroke:none"
       id="path1861" /><path
       d="m 519.48,78.36 h 0.24 v 270.9 h -0.24 z"
       style="fill:#808080;fill-opacity:1;fill-rule:nonzero;stroke:none"
       id="path1863" /><path
       d="M 92.1,78.36 H 519.6 V 78.6 H 92.1 Z"
       style="fill:#808080;fill-opacity:1;fill-rule:nonzero;stroke:none"
       id="path1865" /><path
       d="m 92.1,78.48 h 0.24 v 270.9 H 92.1 Z"
       style="fill:#808080;fill-opacity:1;fill-rule:nonzero;stroke:none"
       id="path1867" /><path
       d="m 91.62,246.42 h 0.12 v 0.24 h -0.12 z"
       style="fill:#808080;fill-opacity:1;fill-rule:nonzero;stroke:none"
       id="path1869" /><path
       d="m 91.74,246.42 h 427.74 v 0.24 H 91.74 Z"
       style="fill:#808080;fill-opacity:1;fill-rule:nonzero;stroke:none"
       id="path1871" /><path
       d="m 91.62,156.18 h 0.12 v 0.24 h -0.12 z"
       style="fill:#808080;fill-opacity:1;fill-rule:nonzero;stroke:none"
       id="path1873" /><path
       d="m 91.74,156.18 h 427.74 v 0.24 H 91.74 Z"
       style="fill:#808080;fill-opacity:1;fill-rule:nonzero;stroke:none"
       id="path1875" /><text
       transform="scale(1,-1)"
       style="font-variant:normal;font-weight:normal;font-stretch:normal;font-size:13.98px;font-family:Arial;-inkscape-font-specification:ArialMT;writing-mode:lr-tb;fill:#000000;fill-opacity:1;fill-rule:nonzero;stroke:none"
       id="text1879"
       x="143.39999"
       y="-132.9601"><tspan
         x="143.39999 151.17708 158.95415 162.0619 169.83897 176.83318"
         y="-132.9601"
         id="tspan1877">object</tspan></text><g
       id="g1881"
       transform="translate(128.39999,144.84)"><path
         d="m 0,0 -0.9,-0.06 -0.84,-0.12 h 0.06 l -0.78,-0.18 0.06,0.06 -0.78,-0.3 -0.78,-0.36 h 0.06 l -0.66,-0.42 -0.66,-0.48 0.06,0.06 -0.6,-0.54 -0.54,-0.6 0.06,0.06 -0.48,-0.66 -0.42,-0.72 V -4.2 L -7.5,-4.92 -7.8,-5.7 v 0.06 l -0.24,-0.84 0.06,0.06 -0.12,-0.84 v 0.06 -1.74 0.06 l 0.12,-0.84 -0.06,0.06 0.24,-0.78 0.3,-0.78 v 0.06 l 0.36,-0.72 0.42,-0.72 v 0.06 l 0.48,-0.66 H -6.3 l 0.54,-0.6 v 0.06 l 0.6,-0.54 h -0.06 l 0.66,-0.48 0.66,-0.42 -0.06,0.06 0.78,-0.36 0.78,-0.3 h -0.06 l 0.78,-0.18 0.84,-0.18 H -0.96 67.2 67.14 l 0.84,0.18 0.78,0.18 H 68.7 l 0.78,0.3 h -0.06 l 0.72,0.36 v -0.06 l 0.42,-0.66 H 70.5 l -0.72,-0.36 -0.78,-0.3 -0.06,-0.06 -0.78,-0.18 -0.84,-0.18 H -0.96 c -1.423,0.209 -2.82,0.706 -4.02,1.5 h -0.06 l -0.66,0.48 v 0.06 l -0.6,0.54 h -0.06 l -0.54,0.6 v 0.06 l -0.48,0.66 -0.42,0.72 -0.06,0.06 -0.36,0.72 -0.3,0.78 v 0.06 l -0.24,0.78 v 0.06 c -0.274,1.673 -0.217,3.668 0.54,5.22 v 0.06 l 0.36,0.72 h 0.06 l 0.42,0.72 v 0.06 c 0.589,0.91 1.43,1.751 2.34,2.34 h 0.06 l 0.66,0.42 0.06,0.06 0.78,0.36 0.78,0.3 h 0.06 l 0.78,0.18 0.84,0.12 h 0.06 l 0.9,0.06"
         style="fill:#000000;fill-opacity:1;fill-rule:nonzero;stroke:none"
         id="path1883" /></g><g
       id="g1885"
       transform="translate(198.53999,129.66)"><path
         d="M 0,0 0.72,0.42 H 0.66 L 1.32,0.9 1.92,1.44 1.86,1.38 2.4,1.98 2.88,2.64 V 2.58 L 3.3,3.3 H 3.24 L 3.6,4.02 V 3.96 L 3.9,4.74 4.14,5.52 V 5.46 L 4.26,6.3 V 6.24 7.98 7.92 L 4.14,8.76 V 8.7 L 3.9,9.54 V 9.48 L 3.6,10.26 3.24,10.98 3.3,10.92 2.88,11.64 2.4,12.3 v -0.06 l -0.54,0.6 h 0.06 l -0.6,0.54 V 13.32 L 0.66,13.8 H 0.72 L 0,14.22 -0.72,14.58 h 0.06 l -0.78,0.3 0.06,-0.06 L -2.16,15 -3,15.12 h 0.06 l -0.9,0.06 h -66.36 0.06 l -0.06,0.78 h 66.42 l 0.9,-0.06 0.84,-0.12 h 0.06 L -1.2,15.6 h 0.06 l 0.78,-0.3 0.72,-0.36 0.06,-0.06 0.72,-0.42 0.66,-0.48 h 0.06 l 0.6,-0.54 V 13.38 L 3,12.78 H 3.06 L 3.54,12.12 V 12.06 C 4.748,10.031 5.204,8.542 5.04,6.18 L 4.92,5.34 4.86,5.28 C 4.365,3.345 3.392,1.501 1.8,0.24 L 1.14,-0.24 0.42,-0.66"
         style="fill:#000000;fill-opacity:1;fill-rule:nonzero;stroke:none"
         id="path1887" /></g><path
       d="m 231.48,163.86 h 283.8 v 70.92 h -283.8 z"
       style="fill:#ffffff;fill-opacity:1;fill-rule:nonzero;stroke:none"
       id="path1889" /><text
       transform="scale(1,-1)"
       style="font-variant:normal;font-weight:normal;font-stretch:normal;font-size:9.96px;font-family:'Times New Roman';-inkscape-font-specification:TimesNewRomanPSMT;writing-mode:lr-tb;fill:#000000;fill-opacity:1;fill-rule:nonzero;stroke:none"
       id="text1893"
       x="231.48"
       y="-228.1201"><tspan
         x="231.48 237.03668 239.82449 243.1601 245.94789 250.94682 255.94574 262.30621 267.34595 270.68158 275.68048 280.67941 285.12057 288.45618 291.24399 294.0318 298.47296 302.31152 308.73175 313.17291 316.50851 320.94968 327.3699 331.81107 336.25223 340.69339 345.13455 349.02792 352.86652 357.30768 362.30661 368.66705 375.87711 378.66489 381.4527 386.45163 392.87186 396.1716 401.1705 406.16943 408.95724 411.74506 416.74396 421.18515"
         y="-228.1201"
         id="tspan1891">String properties are accessed with routine </tspan></text><text
       transform="scale(1,-1)"
       style="font-variant:normal;font-weight:bold;font-stretch:normal;font-size:9.96px;font-family:'Times New Roman';-inkscape-font-specification:TimesNewRomanPS-BoldMT;writing-mode:lr-tb;fill:#000000;fill-opacity:1;fill-rule:nonzero;stroke:none"
       id="text1897"
       x="427.50275"
       y="-228.1201"><tspan
         x="427.50275 432.54251 438.06137 440.88303 445.87796 450.87289 455.31009 458.64169 463.63666 467.52603 470.85764 475.29483 478.62643"
         y="-228.1201"
         id="tspan1895">vpi_get_str()</tspan></text><text
       transform="scale(1,-1)"
       style="font-variant:normal;font-weight:normal;font-stretch:normal;font-size:9.96px;font-family:'Times New Roman';-inkscape-font-specification:TimesNewRomanPSMT;writing-mode:lr-tb;fill:#000000;fill-opacity:1;fill-rule:nonzero;stroke:none"
       id="text1903"
       x="481.92419"
       y="-228.1201"><tspan
         x="481.92419 484.42914 490.7886 496.34131 499.12512 502.45673 505.24057 510.2355"
         y="-228.1201"
         id="tspan1899">. String</tspan><tspan
         x="231.48 236.47792 239.81253 244.81046 249.80838 254.24855 257.58316 260.36996 263.1568 267.59695 271.48932 273.99725 278.43741 281.77203 286.21219 288.72012 293.71805 297.05264 299.56058 302.34738 307.34534 312.34326 316.72464"
         y="-216.1183"
         id="tspan1901">properties are of type </tspan></text><text
       transform="scale(1,-1)"
       style="font-variant:normal;font-weight:normal;font-stretch:normal;font-size:9px;font-family:'Courier New';-inkscape-font-specification:CourierNew;writing-mode:lr-tb;fill:#000000;fill-opacity:1;fill-rule:nonzero;stroke:none"
       id="text1907"
       x="319.20001"
       y="-216.1201"><tspan
         x="319.20001 324.59909 329.9982 335.39731 340.79639 346.1955 351.5343 356.93341 362.33249"
         y="-216.1201"
         id="tspan1905">PLI_BYTE8</tspan></text><text
       transform="scale(1,-1)"
       style="font-variant:normal;font-weight:normal;font-stretch:normal;font-size:9px;font-family:'Courier New';-inkscape-font-specification:CourierNew;writing-mode:lr-tb;fill:#000000;fill-opacity:1;fill-rule:nonzero;stroke:none"
       id="text1911"
       x="370.26001"
       y="-216.1201"><tspan
         x="370.26001"
         y="-216.1201"
         id="tspan1909">*</tspan></text><text
       transform="scale(1,-1)"
       style="font-variant:normal;font-weight:normal;font-stretch:normal;font-size:9.96px;font-family:'Times New Roman';-inkscape-font-specification:TimesNewRomanPSMT;writing-mode:lr-tb;fill:#000000;fill-opacity:1;fill-rule:nonzero;stroke:none"
       id="text1917"
       x="375.60001"
       y="-216.1201"><tspan
         x="375.60001"
         y="-216.1201"
         id="tspan1913">.</tspan><tspan
         x="231.47881 237.03648 242.03641 245.373 247.88292 252.32509 257.32501 261.76715 269.53595 274.53589 277.32468 281.76685"
         y="-192.1165"
         id="tspan1915">For example:</tspan></text><text
       transform="scale(1,-1)"
       style="font-variant:normal;font-weight:normal;font-stretch:normal;font-size:9px;font-family:'Courier New';-inkscape-font-specification:CourierNew;writing-mode:lr-tb;fill:#000000;fill-opacity:1;fill-rule:nonzero;stroke:none"
       id="text1921"
       x="231.48"
       y="-180.78"><tspan
         x="231.48 236.8791 242.2782 247.67731 253.0764 258.47549 263.8746 269.27371 274.61249 280.0116 285.41071 290.80981 296.20889 301.608 307.00711 312.40619 317.745 323.1441 328.54321 333.94229 339.3414 344.74051 350.13959 355.5387 360.8775 366.27661 371.67569 377.0748 382.47391 387.87302 393.27209 398.6712 404.01001 409.40909 414.8082 420.20731 425.60641 431.00549 436.4046 441.80371 447.14252 452.5416 457.9407 463.33981 468.73889 474.138"
         y="-180.78"
         id="tspan1919">PLI_BYTE8 *name = vpi_get_str(vpiName, obj_h);</tspan></text><path
       d="M 231.24,253.26 H 517.5 v 89.22 H 231.24 Z"
       style="fill:#ffffff;fill-opacity:1;fill-rule:nonzero;stroke:none"
       id="path1923" /><text
       transform="scale(1,-1)"
       style="font-variant:normal;font-weight:normal;font-stretch:normal;font-size:9.96px;font-family:'Times New Roman';-inkscape-font-specification:TimesNewRomanPSMT;writing-mode:lr-tb;fill:#000000;fill-opacity:1;fill-rule:nonzero;stroke:none"
       id="text1927"
       x="231.24001"
       y="-335.82001"><tspan
         x="231.24001 234.5786 239.58051 242.37129 246.81544 251.81737 256.19876 259.53735 262.23752 266.68167 271.68356 276.68549 279.38565 286.05087 291.0528 296.05469 298.84549 303.28964 307.7338 312.73572 315.43585 320.41586 323.75446 328.75638 333.75827 338.20242 341.54105 344.33182 347.12262 351.5369 355.42926 358.18918 362.62933 365.96393 370.40411 373.10425 377.54443 381.98459 386.42477 390.86493 394.75729 398.64966 403.08984 408.08777 410.78793 417.99698 420.78378 423.57059 428.56851 431.26868 434.03058 439.0285 443.46869 446.16882 449.52835 454.52628 459.5242 462.311 465.09781 470.09573 474.53592"
         y="-335.82001"
         id="tspan1925">Integer and Boolean properties are accessed with the routine </tspan></text><text
       transform="scale(1,-1)"
       style="font-variant:normal;font-weight:bold;font-stretch:normal;font-size:9.96px;font-family:'Times New Roman';-inkscape-font-specification:TimesNewRomanPS-BoldMT;writing-mode:lr-tb;fill:#000000;fill-opacity:1;fill-rule:nonzero;stroke:none"
       id="text1931"
       x="477.24203"
       y="-335.82001"><tspan
         x="477.24203 482.2818 487.80063 490.62231 495.61127 500.60022 505.03143 508.35709 511.68274"
         y="-335.82001"
         id="tspan1929">vpi_get()</tspan></text><text
       transform="scale(1,-1)"
       style="font-variant:normal;font-weight:normal;font-stretch:normal;font-size:9.96px;font-family:'Times New Roman';-inkscape-font-specification:TimesNewRomanPSMT;writing-mode:lr-tb;fill:#000000;fill-opacity:1;fill-rule:nonzero;stroke:none"
       id="text1937"
       x="514.98047"
       y="-335.82001"><tspan
         x="514.98047"
         y="-335.82001"
         id="tspan1933">.</tspan><tspan
         x="231.24001 237.3405 242.33543 246.77263 250.662 255.0992 257.6041 262.59906 265.93066 270.92563 275.92056 280.35773 283.68936 286.47318 289.25699 293.69418 297.58356 300.0885 304.52567 307.8573 312.29446 314.79941 319.79434 323.12598 325.63092 328.41473 333.40967 338.4046 342.8418"
         y="-323.81821"
         id="tspan1935">These properties are of type </tspan></text><text
       transform="scale(1,-1)"
       style="font-variant:normal;font-weight:normal;font-stretch:normal;font-size:9px;font-family:'Courier New';-inkscape-font-specification:CourierNew;writing-mode:lr-tb;fill:#000000;fill-opacity:1;fill-rule:nonzero;stroke:none"
       id="text1941"
       x="345.29999"
       y="-323.82001"><tspan
         x="345.29999 350.6991 356.09821 361.49731 366.89639 372.2955 377.69461 383.09369 388.4325"
         y="-323.82001"
         id="tspan1939">PLI_INT32</tspan></text><text
       transform="scale(1,-1)"
       style="font-variant:normal;font-weight:normal;font-stretch:normal;font-size:9.96px;font-family:'Times New Roman';-inkscape-font-specification:TimesNewRomanPSMT;writing-mode:lr-tb;fill:#000000;fill-opacity:1;fill-rule:nonzero;stroke:none"
       id="text1947"
       x="393.84"
       y="-323.82001"><tspan
         x="393.84"
         y="-323.82001"
         id="tspan1943">.</tspan><tspan
         x="231.243 236.80167 241.80258 245.14018 248.26065 252.70381 257.70474 262.14789 269.91769 274.91861 277.7084 282.15155 284.94135 288.12158 295.31967 298.10947 303.11038 307.55353 312.55444 315.73468 320.71469 325.15784 330.15875 335.15967 337.94946 342.39261"
         y="-299.81641"
         id="tspan1945">For example: Given handle </tspan></text><text
       transform="scale(1,-1)"
       style="font-variant:normal;font-weight:normal;font-stretch:normal;font-size:9px;font-family:'Courier New';-inkscape-font-specification:CourierNew;writing-mode:lr-tb;fill:#000000;fill-opacity:1;fill-rule:nonzero;stroke:none"
       id="text1951"
       x="345.54001"
       y="-299.8201"><tspan
         x="345.54001 350.93909 356.3382 361.677 367.07611"
         y="-299.8201"
         id="tspan1949">obj_h</tspan></text><text
       transform="scale(1,-1)"
       style="font-variant:normal;font-weight:normal;font-stretch:normal;font-size:9.96px;font-family:'Times New Roman';-inkscape-font-specification:TimesNewRomanPSMT;writing-mode:lr-tb;fill:#000000;fill-opacity:1;fill-rule:nonzero;stroke:none"
       id="text1955"
       x="375.66022"
       y="-299.8201"><tspan
         x="375.66022 378.42215 383.46188 386.58237 391.00858 396.04834 399.22858 404.21255 409.19653 411.96942 416.39563 420.82187 423.64352 426.82376 431.80774 435.12839 438.30862 441.08148 446.12125 451.10522 455.53146"
         y="-299.8201"
         id="tspan1953">to an object of type </tspan></text><text
       transform="scale(1,-1)"
       style="font-variant:normal;font-weight:bold;font-stretch:normal;font-size:9.96px;font-family:'Times New Roman';-inkscape-font-specification:TimesNewRomanPS-BoldMT;writing-mode:lr-tb;fill:#000000;fill-opacity:1;fill-rule:nonzero;stroke:none"
       id="text1959"
       x="458.7037"
       y="-299.8201"><tspan
         x="458.7037 463.68173 469.2175 471.98438 479.78604 485.32181"
         y="-299.8201"
         id="tspan1957">vpiObj</tspan></text><text
       transform="scale(1,-1)"
       style="font-variant:normal;font-weight:normal;font-stretch:normal;font-size:9.96px;font-family:'Times New Roman';-inkscape-font-specification:TimesNewRomanPSMT;writing-mode:lr-tb;fill:#000000;fill-opacity:1;fill-rule:nonzero;stroke:none"
       id="text1965"
       x="488.70325"
       y="-299.8201"><tspan
         x="488.70325 491.16336 494.3436 497.16525 501.54666 505.44501 508.26666 511.38715 514.2088"
         y="-299.8201"
         id="tspan1961">, test if</tspan><tspan
         x="231.24719 234.03302 239.02995 243.46912 245.97606 250.97299 255.96992 258.75574 263.19489 267.63406 270.41989 272.92682 275.71262 279.604 282.11093 286.55011 289.05704 294.05396 298.49313 302.93231 305.71811 310.71506 314.04868 316.5556 319.06253 323.50171 328.49863 333.49557 335.88696 340.88089 345.31708 348.09991 350.60385 353.38669 358.38062 362.8168 365.32077 369.20914 371.99197 376.42816 380.86432 383.36829 388.36221 391.69284 394.19678 396.97961 401.97354 406.40973 408.9137 413.90762 418.90158 421.68439 426.12057 430.55676 433.3396"
         y="-287.8183"
         id="tspan1963">the object is a vector, and get the size of the object.</tspan></text><text
       transform="scale(1,-1)"
       style="font-variant:normal;font-weight:normal;font-stretch:normal;font-size:9px;font-family:'Courier New';-inkscape-font-specification:CourierNew;writing-mode:lr-tb;fill:#000000;fill-opacity:1;fill-rule:nonzero;stroke:none"
       id="text1971"
       x="231.24001"
       y="-276.48001"><tspan
         x="231.24001 236.6391 242.03819 247.4373 252.8364 258.2355 263.57431 268.97339 274.3725 279.77161 285.17068 290.56979 295.9689 301.36801 306.70679 312.1059 317.505 322.90411 328.30319 333.7023 339.10141 344.50049 349.8996 355.2384 360.63751 366.03659 371.4357 376.83481 382.23389 387.633 393.0321 398.37091 403.76999 409.1691 414.56821 419.96729 425.36639 430.7655 436.16461 441.50339 446.9025 452.30161 457.70068 463.09979 468.4989 473.89801 479.29709 484.63589"
         y="-276.48001"
         id="tspan1967">PLI_INT32 vect_flag = vpi_get(vpiVector, obj_h);</tspan><tspan
         x="231.24001 236.6391 242.03819 247.4373 252.8364 258.2355 263.57431 268.97339 274.3725 279.77161 285.17068 290.56979 295.9689 301.36801 306.70679 312.1059 317.505 322.90411 328.30319 333.7023 339.10141 344.50049 349.8996 355.2384 360.63751 366.03659 371.4357 376.83481 382.23389 387.633 393.0321 398.37091 403.76999 409.1691 414.56821 419.96729 425.36639 430.7655 436.16461 441.50339 446.9025"
         y="-266.517"
         id="tspan1969">PLI_INT32 size = vpi_get(vpiSize, obj_h);</tspan></text><path
       d="M 231.24,114.66 H 510 v 30 H 231.24 Z"
       style="fill:#ffffff;fill-opacity:1;fill-rule:nonzero;stroke:none"
       id="path1973" /><text
       transform="scale(1,-1)"
       style="font-variant:normal;font-weight:normal;font-stretch:normal;font-size:9.96px;font-family:'Times New Roman';-inkscape-font-specification:TimesNewRomanPSMT;writing-mode:lr-tb;fill:#000000;fill-opacity:1;fill-rule:nonzero;stroke:none"
       id="text1979"
       x="231.24001"
       y="-138.00011"><tspan
         x="231.24001 237.89627 242.88922 250.65105 255.644 258.42581 262.86102 267.85394 271.81406 276.80701 280.13663 285.12958 290.12253 294.55771 297.88733 300.66916 303.45099 307.8862 311.77356 315.73367 319.06329 324.12097 327.45062 331.41171 334.19354 336.97537 344.73718 349.17236 353.13348 357.57562 362.56857 367.56152 371.52261 374.30444 379.29739 384.29034 387.07217 391.50735 395.46844 400.4614 404.89658 407.67841 412.67136 417.10654 421.06763 425.50284 428.83246 433.26764 437.22873 441.66391 446.09912 450.5343 454.96948 458.85687 462.74426 467.17944 472.17239 476.13348 483.33755 486.11938 488.90121 493.89417 497.85526 500.57831 505.55832"
         y="-138.00011"
         id="tspan1975">Complex properties for time and logic value are accessed with the</tspan><tspan
         x="231.24001 234.02184 239.01477 244.00772 246.78955 251.22475 255.65993 258.44174 262.87695 267.8699 270.37283 273.70245 278.6954 283.68835 286.47018 289.25201 294.24496 298.68015 302.56754 305.0705 307.57346 313.12415 317.55933 321.99454 324.49747 327.2793 332.27225 336.70743 339.21039 344.20334 348.63852 352.52591 356.96109 360.29071 363.12036 368.10733 370.88318 373.70486 378.69183 383.6788 387.56021 390.05719 395.04416 398.3678 400.86478 403.64062 408.68039 413.10959 415.60657 418.93024 423.91721 428.90417 431.72583 434.50168 439.48865 443.91788 447.79929 450.29626 453.6199 458.60687 461.93054 464.42749 469.41446 473.33771 477.7739 482.76785 487.20404"
         y="-125.9983"
         id="tspan1977">indicated routines. See the descriptions of the routines for usage.</tspan></text><path
       d="M 122.88,267.66 H 209.1 V 318.3 H 122.88 Z"
       style="fill:#ffffff;fill-opacity:1;fill-rule:nonzero;stroke:none"
       id="path1981" /><text
       transform="scale(1,-1)"
       style="font-variant:normal;font-weight:normal;font-stretch:normal;font-size:9.96px;font-family:Arial;-inkscape-font-specification:ArialMT;writing-mode:lr-tb;fill:#000000;fill-opacity:1;fill-rule:nonzero;stroke:none"
       id="text1985"
       x="122.88"
       y="-311.64001"><tspan
         x="122.88 126.20664 135.50629 140.49625 146.04398 151.03394 153.81277 159.36049"
         y="-311.64001"
         id="tspan1983">-&gt;vector</tspan></text><text
       transform="scale(1,-1)"
       style="font-style:italic;font-variant:normal;font-weight:normal;font-stretch:normal;font-size:9px;font-family:Arial;-inkscape-font-specification:'Arial Italic';writing-mode:lr-tb;fill:#000000;fill-opacity:1;fill-rule:nonzero;stroke:none"
       id="text1989"
       x="140.88"
       y="-300.29999"><tspan
         x="140.88 145.8633 150.8466 155.8848 157.86211 160.3434 162.8652 167.3445 172.3278 174.3051 180.2874 185.32559 189.82559 192.3069 197.34509"
         y="-300.29999"
         id="tspan1987">bool: vpiVector</tspan></text><text
       transform="scale(1,-1)"
       style="font-variant:normal;font-weight:normal;font-stretch:normal;font-size:9.96px;font-family:Arial;-inkscape-font-specification:ArialMT;writing-mode:lr-tb;fill:#000000;fill-opacity:1;fill-rule:nonzero;stroke:none"
       id="text1993"
       x="122.88"
       y="-286.62009"><tspan
         x="122.88 126.1917 135.49135 140.46637 142.67252 147.64754"
         y="-286.62009"
         id="tspan1991">-&gt;size</tspan></text><text
       transform="scale(1,-1)"
       style="font-style:italic;font-variant:normal;font-weight:normal;font-stretch:normal;font-size:9px;font-family:Arial;-inkscape-font-specification:'Arial Italic';writing-mode:lr-tb;fill:#000000;fill-opacity:1;fill-rule:nonzero;stroke:none"
       id="text1997"
       x="140.88"
       y="-275.28009"><tspan
         x="140.88 142.8582 147.83701 150.3588 152.8203 155.3421 159.86189 164.8407 166.85851 172.79851 174.8163 179.33611"
         y="-275.28009"
         id="tspan1995">int: vpiSize</tspan></text><path
       d="m 122.88,85.98 h 86.22 v 35.64 h -86.22 z"
       style="fill:#ffffff;fill-opacity:1;fill-rule:nonzero;stroke:none"
       id="path1999" /><text
       transform="scale(1,-1)"
       style="font-variant:normal;font-weight:normal;font-stretch:normal;font-size:9.96px;font-family:Arial;-inkscape-font-specification:ArialMT;writing-mode:lr-tb;fill:#000000;fill-opacity:1;fill-rule:nonzero;stroke:none"
       id="text2003"
       x="122.88"
       y="-114.9601"><tspan
         x="122.88 126.1897 135.48936 140.46239 146.04099 154.33069 159.90929 162.11343 167.69203"
         y="-114.9601"
         id="tspan2001">-&gt;complex</tspan></text><text
       transform="scale(1,-1)"
       style="font-style:italic;font-variant:normal;font-weight:normal;font-stretch:normal;font-size:9px;font-family:Arial;-inkscape-font-specification:'Arial Italic';writing-mode:lr-tb;fill:#000000;fill-opacity:1;fill-rule:nonzero;stroke:none"
       id="text2009"
       x="140.88"
       y="-103.6201"><tspan
         x="140.88 143.3604 148.39861 153.381 157.85941 162.8418 165.8172"
         y="-103.6201"
         id="tspan2005">func1()</tspan><tspan
         x="140.88 143.3604 148.39861 153.381 157.85941 162.8418 165.8172"
         y="-93.603096"
         id="tspan2007">func2()</tspan></text><path
       d="m 122.88,175.98 h 86.22 v 35.64 h -86.22 z"
       style="fill:#ffffff;fill-opacity:1;fill-rule:nonzero;stroke:none"
       id="path2011" /><text
       transform="scale(1,-1)"
       style="font-variant:normal;font-weight:normal;font-stretch:normal;font-size:9.96px;font-family:Arial;-inkscape-font-specification:ArialMT;writing-mode:lr-tb;fill:#000000;fill-opacity:1;fill-rule:nonzero;stroke:none"
       id="text2015"
       x="122.88"
       y="-204.9601"><tspan
         x="122.88 126.17875 135.47841 140.99823 146.57683 154.91634"
         y="-204.9601"
         id="tspan2013">-&gt;name</tspan></text><text
       transform="scale(1,-1)"
       style="font-style:italic;font-variant:normal;font-weight:normal;font-stretch:normal;font-size:9px;font-family:Arial;-inkscape-font-specification:'Arial Italic';writing-mode:lr-tb;fill:#000000;fill-opacity:1;fill-rule:nonzero;stroke:none"
       id="text2021"
       x="140.88"
       y="-193.6201"><tspan
         x="140.88 145.3728 147.8676 150.85741 153.3522 155.81371 160.3065 165.3033 167.2941 173.7849 178.78169 186.2715"
         y="-193.6201"
         id="tspan2017">str: vpiName</tspan><tspan
         x="140.88 145.3593 147.84061 150.81689 153.2982 155.7597 160.239 165.27721 167.2545 172.7328 177.771 179.74831 181.7256 188.2029 193.2411 200.71739"
         y="-183.6031"
         id="tspan2019">str: vpiFullName</tspan></text></g></svg>
