<?xml version="1.0" encoding="UTF-8" standalone="no"?>
<!DOCTYPE svg PUBLIC "-//W3C//DTD SVG 1.1//EN"
 "http://www.w3.org/Graphics/SVG/1.1/DTD/svg11.dtd">
<!-- Generated by graphviz version 2.43.0 (0)
 -->
<!-- Title: G Pages: 1 -->
<svg width="266pt" height="80pt"
 viewBox="0.00 0.00 266.00 79.55" xmlns="http://www.w3.org/2000/svg" xmlns:xlink="http://www.w3.org/1999/xlink">
<g id="graph0" class="graph" transform="scale(1 1) rotate(0) translate(4 75.55)">
<title>G</title>
<polygon fill="white" stroke="transparent" points="-4,4 -4,-75.55 262,-75.55 262,4 -4,4"/>
<!-- reset -->
<g id="node1" class="node">
<title>reset</title>
<text text-anchor="middle" x="27" y="-16.85" font-family="Times,serif" font-size="14.00">reset</text>
</g>
<!-- COUNT_0 -->
<g id="node2" class="node">
<title>COUNT_0</title>
<ellipse fill="none" stroke="black" cx="118" cy="-20.55" rx="27" ry="18"/>
<text text-anchor="middle" x="118" y="-16.85" font-family="Times,serif" font-size="14.00">S0</text>
</g>
<!-- reset&#45;&gt;COUNT_0 -->
<g id="edge5" class="edge">
<title>reset&#45;&gt;COUNT_0</title>
<path fill="none" stroke="black" d="M54.22,-20.55C62.55,-20.55 71.91,-20.55 80.82,-20.55"/>
<polygon fill="black" stroke="black" points="80.97,-24.05 90.97,-20.55 80.97,-17.05 80.97,-24.05"/>
</g>
<!-- COUNT_0&#45;&gt;COUNT_0 -->
<g id="edge2" class="edge">
<title>COUNT_0&#45;&gt;COUNT_0</title>
<path fill="none" stroke="black" d="M110.14,-37.96C108.68,-47.64 111.3,-56.55 118,-56.55 122.19,-56.55 124.78,-53.07 125.78,-48.1"/>
<polygon fill="black" stroke="black" points="129.28,-47.99 125.86,-37.96 122.28,-47.94 129.28,-47.99"/>
<text text-anchor="middle" x="118" y="-60.35" font-family="Times,serif" font-size="14.00">0/0</text>
</g>
<!-- COUNT_1 -->
<g id="node3" class="node">
<title>COUNT_1</title>
<ellipse fill="none" stroke="black" cx="231" cy="-20.55" rx="27" ry="18"/>
<text text-anchor="middle" x="231" y="-16.85" font-family="Times,serif" font-size="14.00">S1</text>
</g>
<!-- COUNT_0&#45;&gt;COUNT_1 -->
<g id="edge1" class="edge">
<title>COUNT_0&#45;&gt;COUNT_1</title>
<path fill="none" stroke="black" d="M145.02,-20.55C159.53,-20.55 177.83,-20.55 193.72,-20.55"/>
<polygon fill="black" stroke="black" points="193.75,-24.05 203.75,-20.55 193.75,-17.05 193.75,-24.05"/>
<text text-anchor="middle" x="174.5" y="-24.35" font-family="Times,serif" font-size="14.00">1/0</text>
</g>
<!-- COUNT_1&#45;&gt;COUNT_0 -->
<g id="edge4" class="edge">
<title>COUNT_1&#45;&gt;COUNT_0</title>
<path fill="none" stroke="black" d="M209.09,-9.46C201.97,-6.24 193.82,-3.17 186,-1.55 175.99,0.52 173.01,0.52 163,-1.55 158.48,-2.49 153.85,-3.91 149.37,-5.56"/>
<polygon fill="black" stroke="black" points="147.83,-2.41 139.91,-9.46 150.49,-8.89 147.83,-2.41"/>
<text text-anchor="middle" x="174.5" y="-5.35" font-family="Times,serif" font-size="14.00">0/0</text>
</g>
<!-- COUNT_1&#45;&gt;COUNT_1 -->
<g id="edge3" class="edge">
<title>COUNT_1&#45;&gt;COUNT_1</title>
<path fill="none" stroke="black" d="M221.08,-37.59C219.05,-47.41 222.36,-56.55 231,-56.55 236.4,-56.55 239.72,-52.98 240.95,-47.9"/>
<polygon fill="black" stroke="black" points="244.45,-47.58 240.92,-37.59 237.45,-47.6 244.45,-47.58"/>
<text text-anchor="middle" x="231" y="-60.35" font-family="Times,serif" font-size="14.00">1/1</text>
</g>
</g>
</svg>
