<?xml version="1.0" encoding="UTF-8" standalone="no"?>
<!DOCTYPE svg PUBLIC "-//W3C//DTD SVG 1.1//EN"
 "http://www.w3.org/Graphics/SVG/1.1/DTD/svg11.dtd">
<!-- Generated by graphviz version 2.43.0 (0)
 -->
<!-- Title: G Pages: 1 -->
<svg width="353pt" height="112pt"
 viewBox="0.00 0.00 353.00 111.74" xmlns="http://www.w3.org/2000/svg" xmlns:xlink="http://www.w3.org/1999/xlink">
<g id="graph0" class="graph" transform="scale(1 1) rotate(0) translate(4 107.74)">
<title>G</title>
<polygon fill="white" stroke="transparent" points="-4,4 -4,-107.74 349,-107.74 349,4 -4,4"/>
<!-- reset -->
<g id="node1" class="node">
<title>reset</title>
<text text-anchor="middle" x="27" y="-40.17" font-family="Times,serif" font-size="14.00">reset</text>
</g>
<!-- COUNT_0 -->
<g id="node2" class="node">
<title>COUNT_0</title>
<ellipse fill="none" stroke="black" cx="118" cy="-43.87" rx="27" ry="26.74"/>
<text text-anchor="middle" x="118" y="-47.67" font-family="Times,serif" font-size="14.00">S0</text>
<text text-anchor="middle" x="118" y="-32.67" font-family="Times,serif" font-size="14.00">0</text>
</g>
<!-- reset&#45;&gt;COUNT_0 -->
<g id="edge7" class="edge">
<title>reset&#45;&gt;COUNT_0</title>
<path fill="none" stroke="black" d="M54.22,-43.87C62.55,-43.87 71.91,-43.87 80.82,-43.87"/>
<polygon fill="black" stroke="black" points="80.97,-47.37 90.97,-43.87 80.97,-40.37 80.97,-47.37"/>
</g>
<!-- COUNT_0&#45;&gt;COUNT_0 -->
<g id="edge2" class="edge">
<title>COUNT_0&#45;&gt;COUNT_0</title>
<path fill="none" stroke="black" d="M109.8,-69.69C109.34,-80.05 112.07,-88.74 118,-88.74 121.8,-88.74 124.29,-85.17 125.46,-79.89"/>
<polygon fill="black" stroke="black" points="128.97,-79.92 126.2,-69.69 121.99,-79.41 128.97,-79.92"/>
<text text-anchor="middle" x="118" y="-92.54" font-family="Times,serif" font-size="14.00">0</text>
</g>
<!-- COUNT_1 -->
<g id="node3" class="node">
<title>COUNT_1</title>
<ellipse fill="none" stroke="black" cx="218" cy="-70.87" rx="27" ry="26.74"/>
<text text-anchor="middle" x="218" y="-74.67" font-family="Times,serif" font-size="14.00">S1</text>
<text text-anchor="middle" x="218" y="-59.67" font-family="Times,serif" font-size="14.00">0</text>
</g>
<!-- COUNT_0&#45;&gt;COUNT_1 -->
<g id="edge1" class="edge">
<title>COUNT_0&#45;&gt;COUNT_1</title>
<path fill="none" stroke="black" d="M143.46,-53.49C149.77,-55.77 156.59,-58.06 163,-59.87 168.84,-61.52 175.1,-63.02 181.22,-64.36"/>
<polygon fill="black" stroke="black" points="180.77,-67.84 191.27,-66.43 182.18,-60.98 180.77,-67.84"/>
<text text-anchor="middle" x="168" y="-65.67" font-family="Times,serif" font-size="14.00">1</text>
</g>
<!-- COUNT_1&#45;&gt;COUNT_0 -->
<g id="edge4" class="edge">
<title>COUNT_1&#45;&gt;COUNT_0</title>
<path fill="none" stroke="black" d="M196.86,-53.43C189.79,-48.36 181.48,-43.49 173,-40.87 167.25,-39.1 161,-38.4 154.85,-38.35"/>
<polygon fill="black" stroke="black" points="154.56,-34.86 144.72,-38.8 154.87,-41.85 154.56,-34.86"/>
<text text-anchor="middle" x="168" y="-44.67" font-family="Times,serif" font-size="14.00">0</text>
</g>
<!-- COUNT_2 -->
<g id="node4" class="node">
<title>COUNT_2</title>
<ellipse fill="none" stroke="black" cx="318" cy="-26.87" rx="27" ry="26.74"/>
<text text-anchor="middle" x="318" y="-30.67" font-family="Times,serif" font-size="14.00">S2</text>
<text text-anchor="middle" x="318" y="-15.67" font-family="Times,serif" font-size="14.00">1</text>
</g>
<!-- COUNT_1&#45;&gt;COUNT_2 -->
<g id="edge3" class="edge">
<title>COUNT_1&#45;&gt;COUNT_2</title>
<path fill="none" stroke="black" d="M242.97,-60.11C255.19,-54.62 270.25,-47.86 283.59,-41.87"/>
<polygon fill="black" stroke="black" points="285.25,-44.96 292.93,-37.68 282.38,-38.58 285.25,-44.96"/>
<text text-anchor="middle" x="268" y="-53.67" font-family="Times,serif" font-size="14.00">1</text>
</g>
<!-- COUNT_2&#45;&gt;COUNT_0 -->
<g id="edge6" class="edge">
<title>COUNT_2&#45;&gt;COUNT_0</title>
<path fill="none" stroke="black" d="M291.25,-22.21C265.66,-18.34 225.39,-14.29 191,-19.87 178.2,-21.95 164.59,-25.98 152.7,-30.15"/>
<polygon fill="black" stroke="black" points="151.35,-26.92 143.17,-33.65 153.76,-33.49 151.35,-26.92"/>
<text text-anchor="middle" x="218" y="-23.67" font-family="Times,serif" font-size="14.00">0</text>
</g>
<!-- COUNT_2&#45;&gt;COUNT_2 -->
<g id="edge5" class="edge">
<title>COUNT_2&#45;&gt;COUNT_2</title>
<path fill="none" stroke="black" d="M308.71,-52.24C308.07,-62.79 311.16,-71.74 318,-71.74 322.49,-71.74 325.36,-67.89 326.63,-62.26"/>
<polygon fill="black" stroke="black" points="330.12,-62.45 327.29,-52.24 323.14,-61.99 330.12,-62.45"/>
<text text-anchor="middle" x="318" y="-75.54" font-family="Times,serif" font-size="14.00">1</text>
</g>
</g>
</svg>
